/* XPM */
static char *_8523da3bf8d499beee80f21b5a15ceedXAesosbPpWbYO1N[] = {
/* columns rows colors chars-per-pixel */
"64 64 26 1 ",
"  c None",
". c #04002A",
"X c #04002C",
"o c #04002D",
"O c #050033",
"+ c #060032",
"@ c #050036",
"# c #050037",
"$ c #07003C",
"% c #06003F",
"& c #021830",
"* c #012932",
"= c #022937",
"- c #003E3A",
"; c #004235",
": c #004A36",
"> c #060041",
", c #060042",
"< c #01464A",
"1 c #005342",
"2 c #005D44",
"3 c #005E4A",
"4 c #015754",
"5 c #00754E",
"6 c #00755A",
"7 c #009260",
/* pixels */
"oooooooooooooooo                                oooooooooooooooo",
";;;;;;;;;;;;;;:&                                &:;;;;;;;;;;;;;;",
"ooooooooooooooo*                                *.oooooooooooooo",
"oooooooooooooo.*                                *ooooooooooooooo",
"ooooooooooooooo*                                *ooooooooooooooo",
"ooooooooooooooo*                                *ooooooooooooooo",
"oooooooooooooo.*                                *ooooooooooooooo",
"111111111112=.o*                                *..=211111111111",
"############-..*                                *..-+###########",
"############-..*                                *..-############",
"############-.o*                                *o.-############",
"############-..*                                *..-############",
"############-.o*                                *o.-############",
"############-.o*                                *o.-############",
"333333335+##-..*                                *o.-###533333333",
",,,>>>>%<+##-.o*                                *..-##+<>,,,,>>>",
",,,,,,,><+@@-.o*                                *..-@#@<>>,,,,,,",
",,,,,,,><O#@-..*                                *o.-@@O<>>,,,,,,",
",,,,,,,><+@@-.o*                                *o.-@@+<>>>,,,,,",
",,,,,,,><@#@-.o*                                *o.-@@@<>>,,,,,,",
",,>>,,,><+@@-.o*                                *..-##O<>,,,,,,,",
",,>>,,,><#@@-..*                                *o.-##+<>,,,,,,,",
"66667%,><+##-.o*                                *..-##+<>,#76666",
",,>%4>,><+##-..*                                *o.-##+<>,>4>,,,",
",,,>4%>><+##-.o*                                *o.-@@+<>,%4%>>,",
",,>>4%>><###-.o*                                *o.-@@@<>,%4%>,,",
">>>>4>,><+##-.o*                                *..-@@+<>,>4>,,,",
",>>%4>,><+#+-..*                                *o.-@#+<>,>4>,,,",
",,>>4%>><##@-.o*                                *..-##+<>>%4%>>>",
",,>%4%>><+#@-..*                                *o.-##+<>>%4%>,,",
",,,>4%>><O@@-.o*                                *o.-###<>>%4>,,,",
",,,>4%>><+@@-.o*                                *o.-##+<>>%4>,,,",
",>>%4>,><+##-.o*                                *..-@#@<>>%4%>>,",
",>>%4>,><+##-..*                                *o.-@@O<>>%4%>,,",
",,>>4%,><+##-.o*                                *o.-@@+<>>>4>,,,",
",,>%4%>><O##-..*                                *o.-@@@<>>%4>,,,",
",,,>4%>><@@@-.o*                                *..-##O<>>%4%>>>",
",,>>4%>><+@@-.o*                                *o.-##+<>>%4%>,,",
">>>>4%>><O@@-.o*                                *..-##+<>>%4>,,,",
",>>%4%>><@#@-..*                                *o.-##+<>>%4>,,,",
",,,>4%>><+@@-.o*                                *o.-@#+<>,%4%>>>",
"66667%>><O#@-..*                                *o.-@@O<>,%76666",
",,,,,,>><+#@-.o*                                *..-@#O<>,,,,,,,",
",,,,,>>><@#@-.o*                                *o.-@#+<>,,,,,,,",
",,,,,,,><+#@-.o*                                *..-##+<>,,,,,,,",
",,,,,,,><+#@-.o*                                *o.-##+<>,,,,,,,",
",,,,,,,><+##-..*                                *o.-###<>,,,,,,,",
",,,,,,,><+##-.o*                                *o.-##+<>,,,,,,,",
",,,,,,,><###-..*                                *o.-##+<>>>>>>,,",
"333333335+##-..*                                *..-##+533333333",
"############-..*                                *..-+###########",
"############-.o*                                *o.-############",
"############-.o*                                *o.-############",
"############-..*                                *o.-############",
"############-.o*                                *o.-############",
"############-.o*                                *..-############",
"11111111:212=.o*                                *.o=211111111111",
"ooooooooo+oooo.*                                *ooooooooooooooo",
"ooooooooooooooo*                                *ooooooooooooooo",
"ooooooooooooooo*                                *ooooooooooooooo",
"oooooooooooooo.*                                *ooooooooooooooo",
"ooooooooooooooo*                                *.oooooooooooooo",
";;;;;;;;;;;;;;:&                                &:;;;;;;;;;;;;;;",
"oooooooooooooooo                                oooooooooooooooo"
};
