/* XPM */
static char *_bcff0efd3664b7ca77a5e8893e12b7fABl630e0iD4eXN7I[] = {
/* columns rows colors chars-per-pixel */
"64 64 10 1 ",
"  c None",
". c #04002A",
"X c #04002C",
"o c #04002D",
"O c #021830",
"+ c #012932",
"@ c #022937",
"# c #003E3A",
"$ c #004235",
"% c #004A36",
/* pixels */
"oooo                                                        oooo",
"$$%O                                                        O%$$",
"ooo+                                                        +.oo",
"oo.+                                                        +ooo",
"ooo+                                                        +ooo",
"oo.+                                                        +ooo",
"ooo+                                                        +ooo",
"@.o+                                                        +..@",
"#.o+                                                        +..#",
"#.o+                                                        +o.#",
"#..+                                                        +o.#",
"#.o+                                                        +o.#",
"#..+                                                        +o.#",
"#.o+                                                        +..#",
"#.o+                                                        +..#",
"#..+                                                        +o.#",
"#.o+                                                        +o.#",
"#..+                                                        +o.#",
"#.o+                                                        +o.#",
"#.o+                                                        +..#",
"#.o+                                                        +..#",
"#.o+                                                        +o.#",
"#..+                                                        +o.#",
"#.o+                                                        +o.#",
"#..+                                                        +..#",
"#.o+                                                        +o.#",
"#.o+                                                        +o.#",
"#..+                                                        +o.#",
"#.o+                                                        +o.#",
"#..+                                                        +..#",
"#.o+                                                        +..#",
"#.o+                                                        +o.#",
"#.o+                                                        +o.#",
"#.o+                                                        +o.#",
"#..+                                                        +o.#",
"#.o+                                                        +..#",
"#..+                                                        +..#",
"#.o+                                                        +o.#",
"#.o+                                                        +o.#",
"#..+                                                        +o.#",
"#.o+                                                        +..#",
"#..+                                                        +o.#",
"#.o+                                                        +o.#",
"#.o+                                                        +o.#",
"#.o+                                                        +o.#",
"#.o+                                                        +..#",
"#..+                                                        +..#",
"#.o+                                                        +o.#",
"#..+                                                        +o.#",
"#.o+                                                        +o.#",
"#.o+                                                        +o.#",
"#..+                                                        +..#",
"#.o+                                                        +..#",
"#..+                                                        +o.#",
"#.o+                                                        +o.#",
"#.o+                                                        +o.#",
"@.o+                                                        +..@",
"ooo+                                                        +ooo",
"oo.+                                                        +ooo",
"ooo+                                                        +ooo",
"oo.+                                                        +ooo",
"ooo+                                                        +.oo",
"$$%O                                                        O%$$",
"oooo                                                        oooo"
};
