/* XPM */
static char *aa81547f164e4a52a6770e8dc579b743KYMPCxI6aXzRhXHW[] = {
/* columns rows colors chars-per-pixel */
"64 64 26 1 ",
"  c None",
". c #04002A",
"X c #04002C",
"o c #04002D",
"O c #050033",
"+ c #060032",
"@ c #050036",
"# c #050037",
"$ c #07003C",
"% c #06003F",
"& c #021830",
"* c #012932",
"= c #022937",
"- c #003E3A",
"; c #004235",
": c #004A36",
"> c #060041",
", c #060042",
"< c #01464A",
"1 c #005342",
"2 c #005D44",
"3 c #005E4A",
"4 c #015754",
"5 c #00754E",
"6 c #00755A",
"7 c #009260",
/* pixels */
"oooooooooooooooooooo                        oooooooooooooooooooo",
";;;;;;;;;;;;;;;;;;:&                        &:;;;;;;;;;;;;;;;;;;",
"ooooooooooooooooooo*                        *ooooooooooooooooooo",
"oooooooooooooooooo.*                        *ooooooooooooooooooo",
"oooooooooooooooooo.*                        *ooooooooooooooooooo",
"ooooooooooooooooooo*                        *.oooooooooooooooooo",
"ooooooooooooooooooo*                        *ooooooooooooooooooo",
"1111111111111112=.o*                        *..=2111111111111111",
"################-.o*                        *o.-################",
"################-..*                        *o.-################",
"################-..*                        *..-################",
"################-.o*                        *o.-################",
"################-.o*                        *o.-################",
"###############O-.o*                        *o.-################",
"3333333333335O##-.o*                        *o.-##O5333333333333",
",,,,,>>>>>>%<O##-..*                        *..-O#O<>,,,,,,,>>>>",
",,,,,,,,,,,><###-.o*                        *o.-##O<>,,,,,,,,,,,",
",,,,,,,,,,,><O##-..*                        *o.-##O<>,,,,,,,,,,,",
",,,,,,,,,,,><O##-..*                        *..-##O<>,,,,,,,,,,,",
",,,,,,,,,,,><O##-..*                        *o.-O#O<>,,,,,,,,,,,",
",,,,,,,,>>,><O##-.o*                        *..-##O<>>>,,,,,,,,,",
",,,,,,,,>>,><O##-.o*                        *o.-##O<>>>>,,,,,,,,",
"666666667$>%<O##-..*                        *o.-##O<>>$766666666",
">,,,,>>>4>>%<O#O-.o*                        *..-O#O<>>>4>,,,,>>>",
">>>>,,,>4%>><O##-..*                        *o.-##O<>>%4>>,,,,,>",
"%>,,,,,>4%>><O##-.o*                        *..-##O<>>%4>>,,,,>>",
">,,,,,>%4>>><O##-.o*                        *o.-##O<>>%4%>>,>>>>",
">,,,>>>%4>>><O#O-..*                        *o.-###<>>%4%>>,,>>%",
"%>,,,,>>4%>><###-.o*                        *..-O#O<>>>4>,,,,,,>",
">>,,,,>%4%>><O##-..*                        *..-##O<>>>4>,,,,,>>",
"%>>,,,,>4%>><O##-.o*                        *..-##O<>>%4%>,,>>>>",
"%>>,,,,>4%>><O##-.o*                        *o.-##O<>>%4>>,,,>>%",
">,,,,>>%4%>><O##-.o*                        *o.-##O<>>>4%>,,,,,>",
">,,,,>>%4>>><O##-.o*                        *..-##O<>>>4>>,,,,>>",
"%>,,,,>>4%>><O##-..*                        *o.-##O<>>%4%>>,>>>>",
">>,,,,>%4%>%<O#O-.o*                        *o.-##O<>>%4%>>,,>>%",
"%>>>,,,>4%>><O##-..*                        *o.-O#O<%>%4>,,,,,,>",
"%>,,,,,>4%>><O##-.o*                        *o.-##O<>>%4>,,,,,>>",
">,,,,,>%4>>><O##-.o*                        *..-##O<>>>4%>,,>>>>",
">,,,>>>%4>>><O#O-..*                        *o.-##O<>>%4>>,,,>>%",
"%>,,,,,>4>>><###-.o*                        *..-##O<>>>4%>,,,,,>",
"666666667$>><O##-..*                        *o.-##O<>>$766666666",
">,,,,,>>,,,><O##-.o*                        *o.-##O<>,,,>,,,,,>>",
">>,,,,,,,,,><O##-.o*                        *..-###<>,,,>>,,,,,,",
",,,,,,,,,,,><O##-.o*                        *o.-O#O<>,,,,,,,,,,,",
",,,,,,,,,,,><O##-.o*                        *..-##O<>,,,,,,,,,,,",
",,,,,,,,,,>><O##-..*                        *o.-##O<>,,,,,,,,,,,",
",,,,,,,,,>>$<O##-.o*                        *o.-##O<>,,,,,,,,,,,",
",,,,,,,,,,,><O##-.o*                        *o.-O#O<>>>>>>,,,,,,",
"3333333333335###-.o*                        *..-##O5333333333333",
"################-.o*                        *o.-################",
"###############O-..*                        *..-O###############",
"################-..*                        *o.-################",
"################-.o*                        *o.-################",
"################-.o*                        *..-################",
"###############O-.o*                        *o.-O###############",
"1111111111111112=.o*                        *o.=2111111111111111",
"oooooooooooooooooo.*                        *ooooooooooooooooooo",
"oooooooooooooooooo.*                        *ooooooooooooooooooo",
"ooooooooooooooooooo*                        *.oooooooooooooooooo",
"ooooooooooooooooooo*                        *ooooooooooooooooooo",
"ooooooooooooooooooo*                        *ooooooooooooooooooo",
";;;;;;;;;;;;;;;;;;:&                        &:;;;;;;;;;;;;;;;;;;",
"oooooooooooooooooooo                        oooooooooooooooooooo"
};
