/* XPM */
static char *_c21458a9597445592f144736fff9907WCJQG4wRZeBXnuNe[] = {
/* columns rows colors chars-per-pixel */
"64 64 18 1 ",
"  c None",
". c #04002A",
"X c #04002C",
"o c #04002D",
"O c #050033",
"+ c #060032",
"@ c #050036",
"# c #050037",
"$ c #021830",
"% c #012932",
"& c #022937",
"* c #003E3A",
"= c #004235",
"- c #004A36",
"; c #01464A",
": c #005342",
"> c #005D44",
", c #00754E",
/* pixels */
"oooooooo                                                oooooooo",
"======-$                                                $-======",
"oooooo.%                                                %.oooooo",
"ooooooo%                                                %ooooooo",
"ooooooo%                                                %ooooooo",
"ooooooo%                                                %ooooooo",
"ooooooo%                                                %.oooooo",
":::>&..%                                                %o.&>:::",
"####*.o%                                                %o.*####",
"####*..%                                                %..*####",
"####*.o%                                                %o.*####",
"####*..%                                                %o.*####",
"####*.o%                                                %o.*O###",
"####*.o%                                                %..*####",
",O#O*.o%                                                %..*##O,",
";O##*..%                                                %o.*O#O;",
";O##*..%                                                %o.*##O;",
";O##*..%                                                %..*##O;",
";O#O*.o%                                                %o.*##O;",
";O##*..%                                                %o.*##O;",
";O##*.o%                                                %..*O#O;",
";O##*.o%                                                %..*##O;",
";O##*..%                                                %..*##O;",
";O##*.o%                                                %o.*##O;",
";O##*..%                                                %o.*##O;",
";O#O*.o%                                                %..*##O;",
";O##*.o%                                                %o.*##O;",
";O##*.o%                                                %o.*##O;",
";O##*..%                                                %..*O#O;",
";O##*.o%                                                %..*##O;",
";O#O*..%                                                %..*##O;",
";O##*..%                                                %o.*##O;",
";O##*.o%                                                %o.*##O;",
";O##*..%                                                %..*##O;",
";O##*.o%                                                %o.*##O;",
";O##*..%                                                %o.*##O;",
";O##*.o%                                                %..*O#O;",
";O##*.o%                                                %..*##O;",
";O#O*.o%                                                %..*##O;",
";O##*..%                                                %o.*##O;",
";O##*..%                                                %o.*##O;",
";O#O*..%                                                %..*##O;",
";O##*.o%                                                %o.*##O;",
";O##*.o%                                                %o.*##O;",
";O##*..%                                                %..*O#O;",
";O##*.o%                                                %..*##O;",
";O##*.o%                                                %..*##O;",
";O##*..%                                                %o.*##O;",
";O##*.o%                                                %o.*##O;",
",+##*..%                                                %..*##O,",
"###O*..%                                                %o.*####",
"####*.o%                                                %o.*O###",
"####*.o%                                                %o.*####",
"###O*.o%                                                %..*####",
"####*..%                                                %..*####",
"####*..%                                                %o.*O###",
":::>&.o%                                                %o.&>:::",
"oooooo.%                                                %.oooooo",
"ooooooo%                                                %ooooooo",
"oooooo.%                                                %ooooooo",
"ooooooo%                                                %ooooooo",
"ooooooo%                                                %.oooooo",
"======-$                                                $-======",
"oooooooo                                                oooooooo"
};
