/* XPM */
static char *d28a7b57b45d4901fd258df7d4c3502fI45liMWqnlQJc216[] = {
/* columns rows colors chars-per-pixel */
"64 64 26 1 ",
"  c None",
". c #04002A",
"X c #04002C",
"o c #04002D",
"O c #050033",
"+ c #060032",
"@ c #050036",
"# c #050037",
"$ c #07003C",
"% c #06003F",
"& c #021830",
"* c #012932",
"= c #022937",
"- c #003E3A",
"; c #004235",
": c #004A36",
"> c #060041",
", c #060042",
"< c #01464A",
"1 c #005342",
"2 c #005D44",
"3 c #005E4A",
"4 c #015754",
"5 c #00754E",
"6 c #00755A",
"7 c #009260",
/* pixels */
"oooooooooooooooooooooooooooo        oooooooooooooooooooooooooooo",
";;;;;;;;;;;;;;;;;;;;;;;;;;:&        &:;;;;;;;;;;;;;;;;;;;;;;;;;;",
"oooooooooooooooooooooooooo.*        *.oooooooooooooooooooooooooo",
"ooooooooooooooooooooooooooo*        *ooooooooooooooooooooooooooo",
"ooooooooooooooooooooooooooo*        *ooooooooooooooooooooooooooo",
"ooooooooooooooooooooooooooo*        *ooooooooooooooooooooooooooo",
"ooooooooooooooooooooooooooo*        *ooooooooooooooooooooooooooo",
"211111111111111111111112=..*        *..=211111111111111111111112",
"########################-..*        *..-########################",
"########################-.o*        *o.-########################",
"########################-.o*        *o.-########################",
"########################-.o*        *..-########################",
"O#######################-.o*        *o.-########################",
"########################-..*        *..-########################",
"##O533333333333333335o##-.o*        *o.-O#+533333333333333335+##",
"O#O<,,,,,,,,,,,,>>>><O##-.o*        *o.-##O<%>>>,,,,,,>>>>>><O#O",
"##O<,,,,,,,,,,,,,,,,<O##-.o*        *..-##O<>,,,,,,,,,,,,,,><O##",
"##O<%,,,,,,,,,,,,,,%<O##-..*        *o.-##O<>,,,,,,,,,,,,,,><###",
"##O<,,,,,,,,,,,,,,,,<O##-..*        *o.-##O<>,,,,,,,,,,,,,,><O##",
"O#O<,,,,,,,,,,,,,,,,<O#O-.o*        *o.-###<>,,,,,,,,,,,,,,><O##",
"##O<%,,,,,,,,,,,,,,,<O##-.o*        *o.-O#O<>>,,,,,,,,,,,>>><O#O",
"##O<,,,,,,,,,,,,,,,,<O##-.o*        *..-##O<>>,,,,,,,,>>,>>><O##",
"##O<,,$7666666667$,%<O##-.o*        *..-##O<>>$7666666667%>><O##",
"##O<%,%4%,,,,,,%4%,,<O#O-..*        *..-##O<>>%4>>>,,,,>4%>%<O##",
"O#O<%,%4%,,,,,,%4%,%<O#O-..*        *..-##O<%>%4>,,,,>>%4%,><O##",
"##O<,,%4%,,,,,,%4%,,<O##-.o*        *o.-##O<>>%4>,,,,>>%4%>><###",
"##O<,,%4%,,,,,,%4%,,<O##-..*        *o.-##O<>>>4%>,,,,>>4%>><O##",
"##O<%,%4%,,,,,,%4%,%<O##-.o*        *o.-O#O<>>%4>>,,,,>%4%>><O##",
"O#O<%,%4%,,,,,,%4%,,<O#O-.o*        *o.-##O<>>%4%>>>,,,>4%>><O#O",
"##O<%,%4%,,,,,,%4%,%<O##-.o*        *..-##O<>>%4%>,,,,,>4>>><O##",
"##O<,,%4%,,,,,,%4%,,<O##-.o*        *..-###<>>%4>,,,,,>%4%>><O##",
"##O<,,%4%,,,,,,%4%,,<O##-..*        *o.-##O<>>%4>,,,>>>%4%>%<O##",
"##O<>>%4>,,,,>>%4%>><O##-..*        *o.-##O<%>%4%>>>,,,>4%>><O##",
"##O<>>%4>,,,,>>%4>>><O##-.o*        *o.-##O<>>%4%>,,,,,>4%>><###",
"##O<>>%4%>,,,,>>4%>><O##-.o*        *o.-##O<>>>4>,,,,,>%4%>><O##",
"###<>>%4>>,,,,>%4%>%<O#O-.o*        *..-O#O<>>%4>,,,>>>%4%>><O##",
"O#O<>>>4%>>>,,,>4%>><O##-.o*        *..-##O<>>%4%>,,,,>>4%>><O#O",
"##O<>>>4%>,,,,,>4%>><O##-..*        *o.-##O<>>%4>>,,,,>%4>>><O##",
"##O<>>%4>,,,,,>%4>>><O##-.o*        *o.-##+<>>%4%>>,,,,>4%>><O##",
"##O<>>%4>,,,>>>>4>>><O##-.o*        *o.-###<>>%4%>>,,,,>4%>%<O##",
"O#O<%>>4>>>,,,,>4%,><O##-.o*        *..-##O<>,>4>,,,,>>>4%,><O##",
"##O<%>$7666666667$,><###-..*        *o.-##O<>,%7666666667$,><###",
"##O<>,>>,,,,,,,,>>,><O##-..*        *o.-##O<>,,,>>,,,,,,>>,><O##",
"##O<>,>>,,,,,,,,>>,><O##-.o*        *..-##O<>,,,,,,,,,,,>>,><O##",
"##O<>,,,,,,,,,,,,>>><O#O-.o*        *o.-##O<%>,,,,,,,,,,,>>><O#O",
"##O<>,,,,,,,,,,,,>>><O##-.o*        *..-##O<>>,,,,,,,,,,,>>><O##",
"##O<>,,,,,,,,,,,,,>><O##-.o*        *o.-O#O<>>,,,,,,,,,,,,>><O##",
"###<>,,,,,,,,,,,,,>%<O##-..*        *o.-##O<>>,,,,,,,,,,,,>%<O##",
"O#O<>>>,,,,,,,,,>>>><O##-..*        *..-###<>>>>,,,,,,,,,,,><###",
"##+532333333333333335+##-..*        *o.-##+533333333333333335+##",
"########################-..*        *o.-########################",
"########################-.o*        *o.-O#######################",
"O#######################-.o*        *o.-#######################O",
"########################-.o*        *..-########################",
"########################-.o*        *o.-########################",
"########################-..*        *..-O#######################",
"211111111111111111111112=.o*        *..=2111111111111111:2111112",
"ooooooooooooooooooooooooooo*        *ooooooooooooooooooooOoooooo",
"oooooooooooooooooooooooooo.*        *ooooooooooooooooooooooooooo",
"ooooooooooooooooooooooooooo*        *ooooooooooooooooooooooooooo",
"oooooooooooooooooooooooooo.*        *ooooooooooooooooooooooooooo",
"ooooooooooooooooooooooooooo*        *.oooooooooooooooooooooooooo",
";;;;;;;;;;;;;;;;;;;;;;;;;;:&        &:;;;;;;;;;;;;;;;;;;;;;;;;;;",
"oooooooooooooooooooooooooooo        oooooooooooooooooooooooooooo"
};
