/* XPM */
static char *_f109b9b7b7d4a58f95077f8db50c32dmFmXcaBukIuS5FGc[] = {
/* columns rows colors chars-per-pixel */
"64 64 25 1 ",
"  c None",
". c #04002A",
"X c #04002C",
"o c #04002D",
"O c #050033",
"+ c #060032",
"@ c #050036",
"# c #050037",
"$ c #07003C",
"% c #06003F",
"& c #021830",
"* c #012932",
"= c #022937",
"- c #003E3A",
"; c #004235",
": c #004A36",
"> c #060041",
", c #060042",
"< c #01464A",
"1 c #005342",
"2 c #005D44",
"3 c #005E4A",
"4 c #015754",
"5 c #00754E",
"6 c #009260",
/* pixels */
"oooooooooooo                                        oooooooooooo",
";;;;;;;;;;:&                                        &:;;;;;;;;;;",
"ooooooooooo*                                        *.oooooooooo",
"oooooooooo.*                                        *ooooooooooo",
"oooooooooo.*                                        *ooooooooooo",
"ooooooooooo*                                        *ooooooooooo",
"ooooooooooo*                                        *ooooooooooo",
"11111112=.o*                                        *..=21111111",
"#######@-.o*                                        *..-@#######",
"#######@-.o*                                        *o.-@#######",
"#######@-.o*                                        *o.-@#######",
"#######@-..*                                        *o.-@#######",
"####@##@-.o*                                        *o.-@#######",
"####@@#@-.o*                                        *..-@#######",
"33335+@@-..*                                        *o.-@#+53333",
",,,,<@@@-.o*                                        *o.-@#+<,,,,",
",,,%<+#@-.o*                                        *..-@#+<,,,,",
",,,,<+#@-..*                                        *o.-@#+<,,,,",
",,,,<+#@-..*                                        *o.-@#@<,,,,",
",,,,<@#@-.o*                                        *..-@#+<,,,,",
",,,,<O##-.o*                                        *o.-##+<%,,,",
",,,%<+##-.o*                                        *..-###<,,,,",
"6#,,<O##-.o*                                        *o.-O#+<,,#6",
"4,,%<O##-..*                                        *o.-##+<,,,4",
"4%,,<+##-..*                                        *o.-##O<,,%4",
"4%,,<O##-.o*                                        *..-##+<%,%4",
"4%,,<+#@-..*                                        *o.-O#O<,,%4",
"4%,%<@#@-.o*                                        *..-##O<,,%4",
"4%,,<+#@-.o*                                        *o.-##+<%,%4",
"4%,%<+@@-.o*                                        *o.-###<,,%4",
"4%,,<@@@-.o*                                        *..-O#O<,,%4",
"4%,,<+@@-..*                                        *..-##+<%,%4",
"4%,,<O##-.o*                                        *o.-@@+<,,%4",
"4%,%<O##-.o*                                        *o.-@@+<,,%4",
"4%,,<+##-..*                                        *..-@#@<,,%4",
"4%,%<O##-.o*                                        *o.-@#+<,,%4",
"4%,,<+##-..*                                        *o.-##+<%,%4",
"4%,%<+##-.o*                                        *o.-###<,,%4",
"4%,,<+#@-.o*                                        *o.-O#O<,,%4",
"4%,,<@#@-..*                                        *..-##+<%,%4",
"4%,,<+@@-.o*                                        *..-##O<,,%4",
"6#,,<+#@-.o*                                        *o.-##+<%,#6",
",,,,<+#@-.o*                                        *o.-O#O<,,,,",
",,,,<@#@-..*                                        *o.-##O<,,,,",
",,,,<O##-..*                                        *o.-@@+<,,,,",
",,,%<+##-.o*                                        *..-@@@<,,,,",
",,,,<O##-.o*                                        *o.-@@+<,,,,",
",,,%<O##-.o*                                        *o.-@#+<,,,,",
",,,,<@@@-.o*                                        *..-@#@<,,,,",
"33335+@@-.o*                                        *o.-@#+53333",
"##@@###@-.o*                                        *o.-@#####@@",
"##@@###@-..*                                        *..-@#####@@",
"#######@-.o*                                        *o.-@#######",
"#######@-.o*                                        *..-@#######",
"#######@-..*                                        *o.-@#######",
"#######@-.o*                                        *o.-@#######",
"11111112=..*                                        *o.=21111111",
"ooooooooooo*                                        *.oooooooooo",
"oooooooooo.*                                        *ooooooooooo",
"ooooooooooo*                                        *.oooooooooo",
"ooooooooooo*                                        *ooooooooooo",
"ooooooooooo*                                        *ooooooooooo",
";;;;;;;;;;:&                                        &:;;;;;;;;;;",
"oooooooooooo                                        oooooooooooo"
};
