/* XPM */
static char *_1b79dde1cf6424de4d5ff31e17ddfcezf7lo7A2MmPzWrXi[] = {
/* columns rows colors chars-per-pixel */
"64 64 26 1 ",
"  c None",
". c #04002A",
"X c #04002C",
"o c #04002D",
"O c #050033",
"+ c #060032",
"@ c #050036",
"# c #050037",
"$ c #07003C",
"% c #06003F",
"& c #021830",
"* c #012932",
"= c #022937",
"- c #003E3A",
"; c #004235",
": c #004A36",
"> c #060041",
", c #060042",
"< c #01464A",
"1 c #005342",
"2 c #005D44",
"3 c #005E4A",
"4 c #015754",
"5 c #00754E",
"6 c #00755A",
"7 c #009260",
/* pixels */
"oooooooooooooooooooooooo                oooooooooooooooooooooooo",
";;;;;;;;;;;;;;;;;;;;;;:&                &:;;;;;;;;;;;;;;;;;;;;;;",
"ooooooooooooooooooooooo*                *ooooooooooooooooooooooo",
"ooooooooooooooooooooooo*                *ooooooooooooooooooooooo",
"ooooooooooooooooooooooo*                *.oooooooooooooooooooooo",
"oooooooooooooooooooooo.*                *ooooooooooooooooooooooo",
"ooooooooooooooooooooooo*                *ooooooooooooooooooooooo",
"11111111111111111112=..*                *..=21111111111111111111",
"####################-.o*                *..-+###################",
"####################-.o*                *o.-####################",
"###################+-..*                *o.-####################",
"####################-..*                *o.-####################",
"####################-.o*                *..-####################",
"####################-.o*                *o.-####################",
"33333333333333335+##-..*                *..-##+53333333333333333",
">,,,,,,,,,,,>>>><+##-.o*                *o.-##+<>,,,,,,,,,,>>>>>",
">,,,,,,,,,,,,,,><###-..*                *o.-@#+<>,,,,,,,,,,,,,,>",
">,,,,,,,,,,,,,,><+#+-.o*                *o.-@@O<>,,,,,,,,,,,,,,>",
">,,,,,,,,,,,,,,><###-..*                *..-@#O<>,,,,,,,,,,,,,,>",
">,,,,,,,,,,,,,,><+##-.o*                *o.-@#+<>,,,,,,,,,,,,,,>",
">,,,,,,,,,,,,,,><+##-.o*                *..-@#@<>,>,,,,,,,>>,,,>",
">,,,,,,,,>,,,,,><+##-..*                *o.-@#O<>,>>,,,,,,,>,,,>",
">,#7666666667$>><+##-.o*                *o.-@#+<>,%7666666667$,>",
">,>4>,,,>>>>4>>><O##-.o*                *o.-@@O<>,%4>>>,,,>>4>,>",
">,>4%>>,,,,>4%>><O@@-.o*                *o.-##O<>>%4>,,,,,>>4%>>",
">,>4>>>>,,>>4%>><+@@-.o*                *..-##+<>>%4>,,,,,>%4%>>",
">>%4>>,,>>>>4>,><O#@-.o*                *o.-##+<>>%4%>,,,,,>4>>>",
">>%4>,,,,>>%4>,><@#@-..*                *o.-##+<>>%4>>,,,,,>4>>>",
">>%4%>,,,,>>4%>><+#@-.o*                *..-##+<>,>4%>>,,>>%4%>>",
">,%4>>,,,,>%4%>><O#@-..*                *o.-##+<>,>4>>>>,>>%4%>>",
">,>4%>>,,,,>4%>><O@@-.o*                *..-##+<>>%4>>,,,,>>4>>>",
">,>4%>>,,,,>4%>><+#@-.o*                *..-###<>>%4>,,,,,>%4>>>",
">>%4>,,,,>>%4>,><+##-.o*                *o.-##O<>>%4%>>,,,>>4%>>",
">>%4>,,,,>>%4>,><+##-..*                *o.-##+<>>%4>>>>,,>%4%>>",
">>%4%>,,,,>>4%,><+##-.o*                *..-##+<>>%4>>,,,,,>4>>>",
">>%4>>,,,,>%4%>><O##-..*                *o.-##+<>>%4>,,,,,,>4>>>",
">,>4%>>,,,,>4%>><@@@-.o*                *o.-@#+<>>%4%>,,,>>%4%>>",
">,>4>>>>,,>>4%>><+@@-.o*                *..-@@O<>,%4>>,,,>>%4%>>",
">>%4>>,,>>>>4>,><O@@-.o*                *o.-@#O<>,>4%>>,,,>>4>>>",
">>%4>,,,,>>%4>,><@#@-..*                *o.-@#+<>,>4%>>,,,>%4>>>",
">>>4>>>>,,,>4>,><+#@-.o*                *..-@#@<>>>4>,,,,,,>4%>>",
">>$7666666667#,><O#@-.o*                *o.-@@O<>>%7666666667%>>",
">,,,,,>,,,,,,,,><O@@-..*                *o.-@@+<>>,,>>,,,,,,,,>>",
">,,,,,,,,,,,,,,><+#@-.o*                *o.-@@@<>>,,,,,,,,,,,>>>",
">,,,,,,,,,,,,,>><+##-.o*                *..-##O<>,,,,,,,,,,,,,,>",
">,,,,,,,,,,,,>>><+##-..*                *o.-##+<>>,,,,,,,,,,,,,>",
">,,,,,,,,,,,,,>><+##-.o*                *..-##+<>,,,,,,,,,,,,,,>",
">,,,,,,,,,,,,,>><O##-.o*                *o.-##+<>,,,,,,,,,,,,,,>",
">,,,,,,,,,,,,,,><+##-.o*                *o.-##+<>,,,,,,,,,,,,,,>",
"33333333333333335+##-.o*                *..-##+53333333333333333",
"####################-..*                *..-+###################",
"###################+-..*                *o.-####################",
"####################-.o*                *..-####################",
"####################-.o*                *o.-####################",
"####################-..*                *o.-####################",
"####################-.o*                *o.-####################",
"11111111111111111112=.o*                *o.=21111111111111111111",
"oooooooooooooooooooooo.*                *.oooooooooooooooooooooo",
"ooooooooooooooooooooooo*                *ooooooooooooooooooooooo",
"ooooooooooooooooooooooo*                *ooooooooooooooooooooooo",
"ooooooooooooooooooooooo*                *ooooooooooooooooooooooo",
"oooooooooooooooooooooo.*                *ooooooooooooooooooooooo",
";;;;;;;;;;;;;;;;;;;;;;:&                &:;;;;;;;;;;;;;;;;;;;;;;",
"oooooooooooooooooooooooo                oooooooooooooooooooooooo"
};
