/* XPM */
static char *_8dcacd5c4b1468384bbf19a9520cbebSa5yIn2MoRBi1eYZ[] = {
/* columns rows colors chars-per-pixel */
"64 64 190 2 ",
"   c None",
".  c #030303",
"X  c #090706",
"o  c #0B0B0B",
"O  c #120E0B",
"+  c #151515",
"@  c #1C1C1C",
"#  c #191615",
"$  c #221C1A",
"%  c #2C211C",
"&  c #1D2022",
"*  c #232324",
"=  c #2B2B2B",
"-  c #2C2725",
";  c #332726",
":  c #362826",
">  c #3C2B26",
",  c #3B2D29",
"<  c #3E322B",
"1  c #323435",
"2  c #35393B",
"3  c #432E26",
"4  c #432F28",
"5  c #453026",
"6  c #4B3226",
"7  c #453129",
"8  c #4B3229",
"9  c #4D3C2D",
"0  c #463A2C",
"q  c #533426",
"w  c #52362A",
"e  c #55392C",
"r  c #5C3B2C",
"t  c #5B3726",
"y  c #443B32",
"u  c #483E34",
"i  c #5E3D30",
"p  c #623E2C",
"a  c #683F2C",
"s  c #613F30",
"d  c #4D422F",
"f  c #52442F",
"g  c #4B4236",
"h  c #4F4639",
"j  c #544631",
"k  c #5B4C33",
"l  c #524539",
"z  c #55493B",
"x  c #5B4C3D",
"c  c #5B4434",
"v  c #5E503F",
"b  c #65402E",
"n  c #6C422D",
"m  c #73452F",
"M  c #76492F",
"N  c #7A4A2F",
"B  c #79472F",
"V  c #654131",
"C  c #6C4431",
"Z  c #674C34",
"A  c #734631",
"S  c #764932",
"D  c #7C4B33",
"F  c #784731",
"G  c #645135",
"H  c #695437",
"J  c #6D5638",
"K  c #6F5939",
"L  c #7D5037",
"P  c #7D5239",
"I  c #735C3A",
"U  c #393D40",
"Y  c #454646",
"T  c #464849",
"R  c #5E5040",
"E  c #524B49",
"W  c #645442",
"Q  c #6B5A46",
"!  c #6E5D4A",
"~  c #695546",
"^  c #715F49",
"/  c #605E5F",
"(  c #74614C",
")  c #79654E",
"_  c #7D684F",
"`  c #7C6750",
"'  c #7E6952",
"]  c #776450",
"[  c #646566",
"{  c #797878",
"}  c #746863",
"|  c #814D2F",
" . c #83502F",
".. c #834D33",
"X. c #884E34",
"o. c #834F39",
"O. c #855134",
"+. c #8B5235",
"@. c #865238",
"#. c #8C5439",
"$. c #8C5A3B",
"%. c #87593F",
"&. c #925436",
"*. c #925639",
"=. c #955A3B",
"-. c #9B5C3C",
";. c #9E5737",
":. c #A25E3D",
">. c #A95F3D",
",. c #95613F",
"<. c #9C623E",
"1. c #A3623F",
"2. c #AA613F",
"3. c #A1693F",
"4. c #825941",
"5. c #836D55",
"6. c #9A6A56",
"7. c #8C745B",
"8. c #887157",
"9. c #91775E",
"0. c #93795F",
"q. c #A56341",
"w. c #AC6542",
"e. c #A46A41",
"r. c #AC6943",
"t. c #A56748",
"y. c #B06744",
"u. c #B06844",
"i. c #AB6E53",
"p. c #A36F59",
"a. c #A4715B",
"s. c #A87159",
"d. c #947A61",
"f. c #9B7D64",
"g. c #9E7661",
"h. c #867A75",
"j. c #846D63",
"k. c #AB7D69",
"l. c #9C8166",
"z. c #9F8469",
"x. c #A08467",
"c. c #A28569",
"v. c #A7896C",
"b. c #AE8C7C",
"n. c #B3907F",
"m. c #858687",
"M. c #9C9D9E",
"N. c #949799",
"B. c #AC958A",
"V. c #B7998C",
"C. c #A99B95",
"Z. c #B4A59F",
"A. c #ABACAC",
"S. c #A3A7AA",
"D. c #B5ABA6",
"F. c #B6ADA9",
"G. c #B4B1AF",
"H. c #B4B4B4",
"J. c #B6BBBD",
"K. c gray72",
"L. c #C39C8A",
"P. c #C6A79A",
"I. c #C0ADA4",
"U. c #D1BCB3",
"Y. c #C8C1BF",
"T. c #B8BFC1",
"R. c #BDC3C6",
"E. c #BFC5C8",
"W. c #C3C4C5",
"Q. c #C2C7C9",
"!. c #C4C9CC",
"~. c #CBCBCC",
"^. c #C9C4C3",
"/. c #CACFD1",
"(. c #CCD1D3",
"). c #D1D3D4",
"_. c #D2D6D9",
"`. c #D5DADC",
"'. c #D9DBDC",
"]. c #E2D9D5",
"[. c #E7E1DF",
"{. c #DADEE1",
"}. c #DEE1E3",
"|. c #E1E3E6",
" X c #E4E6E9",
".X c #E7E9EB",
"XX c #EAEBED",
"oX c #EDEFF1",
"OX c #EEF0F2",
"+X c #F1F2F3",
/* pixels */
"                                                          u.u.u.2.2.1.-.=.                                                      ",
"                                    @               y.r.u.u.u.u.r.2.1.-.=.#.+.O.                                                ",
"                                = = = = -       y.2.r.y.u.u.u.u.r.r.q.:.=.=.#.X.....                                            ",
"                              * @ + + # & *   r.2.2.y.y.u.u.u.u.r.r.w.1.-.;.*.+.o...D     = = - * *                             ",
"                              X .     . X @ % r.u.u.u.u.u.u.u.2.y.w.q.2.q.:.-.*.#...D s = * # O # @ &                           ",
"                            .             X @ =.u.2.2.u.u.2.u.2.w.w.w.w.q.:.<.;.*.+.r * o . . . . . X +                         ",
"                                        r.q.O $ 2.2.u.2.2.2.u.2.w.>.2.2.q.>.q.-.*.r @ . X q           . .                       ",
"                                      r.w.w.t # -.y.2.y.y.2.2.u.w.w.w.q.2.2.:.-.V # . t S m n           .                       ",
"                                    u.u.u.u.u.O % y.2.y.y.2.2.y.w.w.2.2.>.q.:.C @ X a p n m a                                   ",
"                                    u.u.u.y.2.&.# +.y.2.2.y.2.2.w.2.w.2.>.>.L & O r p a a a a n                                 ",
"                                  u.u.u.u.2.u.2.# # y.2.y.2.2.y.y.w.2.2.q.L # o p t p a a m n n                                 ",
"                                2.u.u.u.y.2.P.XX}.o % y.2.2.y.2.2.2.y.2.A # . e t | +.X.o.B M n n                               ",
"                                u.u.u.u.2.].oXoX X(.X % y.:.2.r.:.2.>.4 # X < { ^.;.&.&.X...M m n                               ",
"                              r.r.u.u.u.U.OXOXXX X{._.T o X.2.:.o.s $ X o E ).{.`.!.&.+.X.| F m n M                             ",
"                              r.u.u.y.i.+X+XOX.X X{._./.:.| -...X $ / K..X.X X}.`.(.B.+.+...F M n m                             ",
"                            r.r.u.u.y.[.+X+XOX.X X[ N./.:.:.A +.;.|.+X+XoX.X X|.`./.W.&.+.X.D N m m D                           ",
"                          w.r.r.r.r.r.+X+X+XXXXX{ Q.m./.:.-.;.*.&.oX).= M.XX X}.`./.R.6.X.....B M m S                           ",
"                          r.r.r.u.r.L.+X+X+XXX X& S.Y J.;.-.*.&.p.oX1 `.Y |. X}.`.~.R.B.+.X...D M M M D                         ",
"                        w.r.r.r.r.r.].+X+XOX.X}.+ 2 & J.;.;.&.+.V.G.T !.2 M.|.{._.!.R.F.+.X...D F N M F                         ",
"                      e.e.r.r.r.r.2.XXXXXXXX|.{.X 2 o !.:.&.+.X.P.{ = U * m.}.'.(.!.R.K.+.X.....D F N F L                       ",
"                    e.e.w.r.r.r.w.q.}..X.X}.{.`.X X * B.-.&.+.+.V.M.+ 2 o !.}.`.(.!.R.H.+.O.X.| ..D B B D                       ",
"                    e.w.e.r.w.y.w.w.{.{.'.`._.(.S.2 E.:.:.;.+.O.6.OX. . o  X}._.(.!.R.C.+.X.........D B F D                     ",
"                  e.e.e.w.w.w.w.w.y./.(.(.(./.!.Q.R.F.1.:.;.#.X.X.XX!.[ |.}.}.(.!.W.J.6.+.+.X.X.| D ..D N D                     ",
"                <.e.r.r.r.r.y.w.y.2.V.!.E.!.E.!.E.R.>.2.-.=.+.X...'.}.}.}.}.`.(.!.R.T.&.+.+.X.......D N F F O.                  ",
"              ,.3.3.r.r.r.r.2.w.2.w.>.Q.E.R.R.R.E.s.w.2.:.=.#.X...6.'.{.{.{._.!.R.T.C.;.+.X.............D F O. .                ",
"              <.3.e.e.r.r.w.>.-.-.:.2.k.R.R.R.E.p.w.w.:.-.;.&.X...D Y._.'._./.Q.T.J.&.&.&.+.+.X.....D N F M N  .                ",
"            =.<.e.r.r.u.r.1.&.4.o.#.q.:.>.k.s.>.w.w.2.2.:.;.&.X.....| Y.(./.!.R.J.&.&.*.&.+.......B D D D M M | N               ",
"            =.3.e.e.r.u.w.-.I.~.a F @.:.2.2.w.w.w.w.2.>.:.-.*.+.X.| ..| 6.D.D.g.&.*.*.*.#.........D D F M m n N O.              ",
"            ,.3.e.e.u.u.r.$.oXW.j.C F @.=.=.=.=.q.#.-.-.=.=.*.#.O...| | ..X.O.+.#.#.#.@.F A F D D B B S M m n M O.O.            ",
"          #.<.3.e.r.r.r.q.b.XX~.A.i s C A A A A A A D L o.o.D D F F N M M F F D ....D C D.(.i a m m M M m m n M L O.            ",
"          @.<.3.e.r.r.u.,..XOX(.H.9 e e w e e r i i i s p s p p b b b r r b b b s a a a +X).~ r a A A m m m n n N +.            ",
"          @.,.3.e.e.r.r.O.OXXX~.A.i 3 w a o.*.-.:.:.:.>.:.=.#.S r 6 5 5 5 8 8 w e r i D.+X~.G.w r a m m M M M M N +.            ",
"            ,.<.e.q.r.r.h.oX'.B.t.t.>.w.q.w.q.r.r.y.t.w.w.r.q.q.-.-.4.=.F 6 > 5 8 e r +X+X).W.w r C m M M m n m N  . .          ",
"            @.=.<.q.q.q.>.:.>.t.q.w.w.t.w.w.w.w.w.r.u.w.w.r.y.w.r.r.q.w.2.:.=.&.b 6 h.XX+X'.K.E e n B B M m n n N  . .          ",
"            A O.#.$.=.-.:.:.:.>.q.w.:.q.q.q.:.q.r.w.q.w.w.w.r.w.w.w.r.w.r.r.w.w.q.q.t.U.XX).H.[ 8 C ..o.B m n n N  . .          ",
"              n S X.#.+.*.;.q.:.:.:.q.q.q.:.q.q.q.q.q.q.q.q.>.q.q.r.r.r.w.w.r.r.w.q.1.1.-.a.M.l.q D +...M n b n N  .            ",
"              e p n F D ..X.&.$.4.=.=.*.=.&.*.*.#.*.*.=.-.-.-.-.-.:.q.:.:.>.q.q.w.q.q.q.-.-.#.o.O.O...B A a a n N O.            ",
"                8 r b n m A A D ..B F F F B D D D D ....X.X.@.#.*.*.*.-.q.=.-.q.:.:.-.1.-.=.&.X.O.D B m a p t m L               ",
"                  6 8 e e r r r r r i r p p p p a s C n a B S B D ....+.+.*.#.*.=.=.=.*.&.&.@.X.D B A a p e p M N               ",
"                    > 5 8 8 8 5 8 4 4 8 8 8 6 w w w w w e e e i p b n A B D D ....O.+.+.+.o.o.F A a r r q q a M                 ",
"                        > > 3 > : > > > > > > 3 , > 3 4 > 3 4 4 7 6 w e r p a C A m F B A a a a r t w 6 q c M                   ",
"                              : > : : > : : : : : ; : : : : : : : : > 3 4 4 6 w w e e r w w w 8 5 3 6 w r n                     ",
"                                          y y 4 < , < ; : : ; ; ; ; ; ; : : : , > > 3 > 3 > > > > 5 8 r                         ",
"                            3.            l l g g g g g y u u u u u y 7 < , ; ; ; ; ; ; : : : 3 3                               ",
"                    q.q.q.q.3.q.<.q.<.  ~ Q ~ H W x x z l h g h l z z v ! 5.d.l.                                                ",
"                  q.q.q.<.q.-.<.<.-.<.q.^ ^ ' 5.) ^ Q Q H v x x R W Q ! ) 8.l.z.                                                ",
"                =.=.-.<.-.=.-.=.=.=.=.-.:.4.! 5.7.8.' ( ( ! Q Q ~ ! ( ) 5.0.l.z.                                                ",
"                @.@.#.#.#.=.$.*.$.=.=.=.-.4.P ~ 8.d.0.7.' ) ( ^ ! ^ ) ) 5.0.l.z.                                                ",
"                S S S S D @.@.#.#.#.$.*.#.#.4.V ~ 7.k.l.f.7.5._ ) ) ] ' 5.0.l.z.                                                ",
"              e c e e r V V S S o.@.@.@.@.#.o.L E ! 9.z.v.z.0.5._ ] 5.5.8.0.f.z.                                                ",
"              5 7 I I K e 8 e i C L o.o.o.L D S c z ( 0.v.v.c.d.8.8.8.8.7.0.0.7.7                                               ",
"              < 9 I I I I I u 8 e V S L L L F A b y z ! 7.c.v.f.0.8.5.8.8.' ' x 7 7                                             ",
"                < K K I I I I H 7 e s A S S A C p u y g R ( 5.5.] ] ( ! ! ! x e i s s r                                         ",
"                , G J K K I I I J 4 w s C A C V r w y y y g l z x x z x x c C L @.L o.D C                                       ",
"                  > k k G G G J J G 7 8 i C V r e 8     < < y u y g u u Z O.$.,.=.=.q.$.#.L                                     ",
"                    7 j j k k k G G j 7 w c i r 6 7     - ; = ; ; , e S @.$.,.4.e.q.<.q.:.*.                                    ",
"                        9 f f j j k k > 5 w w 8 4       - ; ; ; ; 7 C P $.$.4.3.q.q.q.q.-.*.L                                   ",
"                          < d d f d f f , 7 7 3 >         - ; ; : 7 C #.=.=.-.<.q.:.-.-.=.#.D                                   ",
"                              < d d d f , : , >             ; ; , 5 b @.=.-.-.-.:.q.-.=.#.o.F                                   ",
"                                  , 0 d < ; :                 ; : < w D $.=.=.-.=.=.*.#.o.D A                                   ",
"                                                                ; > 8 s o.#.*.4.=.#.+.o.D F C                                   ",
"                                                                  ; : 4 i A o.+.@...o.F S C                                     ",
"                                                                      > 4 8 e s C C C s r                                       ",
"                                                                              4 4 7 7                                           "
};
