/* XPM */
static char *_338cd2348614ca78876eee0177c55ae1l0GKu3K4NHTat3o[] = {
/* columns rows colors chars-per-pixel */
"64 64 4 1 ",
"  c None",
". c #000001",
"o c #C37100",
"@ c #FFD3C4",
/* pixels */
"                                                                ",
"                                                                ",
"                                                                ",
"                                                                ",
"                                                                ",
"                                                                ",
"                                                                ",
"                                                                ",
"                                                                ",
"                                                                ",
"                                                                ",
"                                                                ",
"                                                                ",
"                                                                ",
"                                                                ",
"                                                                ",
"                                                                ",
"                                                                ",
"                                                                ",
"                                                                ",
"                                                                ",
"                                                                ",
"                                                                ",
"                                                                ",
"                                                                ",
"                                                                ",
"                                                                ",
"                                                                ",
"                                                                ",
"                                                                ",
"                                                                ",
"                                                                ",
"                            oooooooo                            ",
"                           oooooooooo                           ",
"                      ...oooooooooooooo...                      ",
"                     .....oooooooooooo.....                     ",
"                    .......oooooooooo.......                    ",
"                    ........oooooooo........                    ",
"                      ooo....oooooo....ooo                      ",
"                      oooo....oooo....oooo                      ",
"                      oooo@@@@....@@@@oooo                      ",
"                     oooo@@@@@....@@@@@oooo                     ",
"                    oooo@@@@..oooo..@@@@oooo                    ",
"                    oooo@@@@..oooo..@@@@oooo                    ",
"                    oooo@@@@..oooo..@@@@oooo                    ",
"                   ooooo@@@@..oooo..@@@@ooooo                   ",
"                  ooooooo@@@@@oooo@@@@@ooooooo                  ",
"                 ooooooooo@@@@oooo@@@@ooooooooo                 ",
"                oooooo@@oooooooooooooooo@@oooooo                ",
"                oooooo@@@oooooooooooooo@@@oooooo                ",
"                oooooo@@@@............@@@@oooooo                ",
"                oooooo@@@@............@@@@oooooo                ",
"                oooooo....oooooooooooo....oooooo                ",
"                oooooo....oooooooooooo....oooooo                ",
"                 ooooooooooo@@@@@@@@ooooooooooo                 ",
"                  oooooooooo@@@@@@@@oooooooooo                  ",
"                       @@@@@@@@@@@@@@@@@@@@                     ",
"                    ....@@@@@@@@@@@@@@@@@@                      ",
"                   .......@@@@@@@@@@@@@@@                       ",
"                  .........@@@@@@@@@@@@@@                       ",
"                  oooooooo..@@@@@@@@@@@@...                     ",
"                  oooooooo...@@@@@@@@@@.....                    ",
"                  ........o...@@@@@@@@.......                   ",
"                  ........ooo.      ..........                  "
};
