/* XPM */
static char *f56ccb6a13134c6fe31a2d2c2c14201ayATivIqxlbGvPUw2[] = {
/* columns rows colors chars-per-pixel */
"64 64 199 2 ",
"   c None",
".  c #020202",
"X  c #0B0B0A",
"o  c #150E0B",
"O  c #16110E",
"+  c #0E0F10",
"@  c #131414",
"#  c #1B1B1B",
"$  c #1A1615",
"%  c #221A16",
"&  c #38251C",
"*  c #1E2122",
"=  c #232424",
"-  c #2F2523",
";  c #2A2A2A",
":  c #332624",
">  c #362925",
",  c #3C2A25",
"<  c #3A2E29",
"1  c #342D29",
"2  c #3D322B",
"3  c #2E3334",
"4  c #3A3A39",
"5  c #492B1E",
"6  c #432E26",
"7  c #482F26",
"8  c #462F28",
"9  c #443127",
"0  c #4B3226",
"q  c #44332A",
"w  c #4C3329",
"e  c #4B3B2D",
"r  c #533527",
"t  c #5A3625",
"y  c #533629",
"u  c #583728",
"i  c #55392B",
"p  c #5C3B2B",
"a  c #5A3927",
"s  c #453B31",
"d  c #443B33",
"f  c #633E2C",
"g  c #693F2B",
"h  c #623B27",
"j  c #4D412D",
"k  c #52432E",
"l  c #4C4136",
"z  c #524534",
"x  c #5D4232",
"c  c #5B4A32",
"v  c #524739",
"b  c #56493B",
"n  c #5B4C3C",
"m  c #564831",
"M  c #66412F",
"N  c #6C412D",
"B  c #73452E",
"V  c #78472F",
"C  c #76482F",
"Z  c #7B4B2F",
"A  c #654130",
"S  c #6C4431",
"D  c #634E33",
"F  c #6B4A37",
"G  c #734731",
"H  c #784730",
"J  c #754832",
"K  c #7C4A32",
"L  c #655135",
"P  c #6B5537",
"I  c #6E5838",
"U  c #66543C",
"Y  c #725B39",
"T  c #7B543B",
"R  c #3C3F40",
"E  c #474848",
"W  c #5D4F40",
"Q  c #4C4F50",
"!  c #565657",
"~  c #645542",
"^  c #6A5543",
"/  c #6C5A46",
"(  c #6D5C48",
")  c #715E49",
"_  c #695C56",
"`  c #76624C",
"'  c #7B654E",
"]  c #7E6951",
"[  c #796554",
"{  c #6E6D6E",
"}  c #6D6E70",
"|  c #797A7B",
" . c #7A6F6B",
".. c #814D2F",
"X. c #834D33",
"o. c #894F33",
"O. c #855135",
"+. c #8B5235",
"@. c #8C5438",
"#. c #8C5B3A",
"$. c #82583E",
"%. c #925536",
"&. c #935639",
"*. c #955A3B",
"=. c #9C5C3C",
"-. c #9C5737",
";. c #A25E3D",
":. c #A85E3B",
">. c #96603C",
",. c #9D623D",
"<. c #A4623E",
"1. c #A9623F",
"2. c #A2683F",
"3. c #955E43",
"4. c #9A6145",
"5. c #826C54",
"6. c #8D6553",
"7. c #887157",
"8. c #8C745B",
"9. c #877056",
"0. c #93795E",
"q. c #91775E",
"w. c #8C624D",
"e. c #A66340",
"r. c #AC6541",
"t. c #A76941",
"y. c #AB6842",
"u. c #A6694D",
"i. c #A6694D",
"p. c #A77359",
"a. c #AC7256",
"s. c #9D7664",
"d. c #967C61",
"f. c #987E63",
"g. c #9F7D6E",
"h. c #857974",
"j. c #A97B68",
"k. c #9D8266",
"l. c #9F8468",
"z. c #94857D",
"x. c #A38668",
"c. c #A58469",
"v. c #AC8573",
"b. c #A58270",
"n. c #B78167",
"m. c #7E8081",
"M. c #888A8B",
"N. c #9B9C9D",
"B. c #969798",
"V. c #9E908A",
"C. c #A68F84",
"Z. c #AB8D81",
"A. c #B49485",
"S. c #B8988A",
"D. c #AB9B93",
"F. c #A79C98",
"G. c #B09C93",
"H. c #AFA29D",
"J. c #BBA296",
"K. c #9D9FA0",
"L. c #A8A6A5",
"P. c #B1AFAD",
"I. c #BFB1AC",
"U. c #B1B0AF",
"Y. c #AEB2B4",
"T. c #B2B3B3",
"R. c #BBBCBD",
"E. c #B5B8BA",
"W. c #C6A08F",
"Q. c #C7A394",
"!. c #C2BAB7",
"~. c #CCB2A6",
"^. c #D6C4BD",
"/. c #B7BEC0",
"(. c #B9BFC1",
"). c #BCC2C5",
"_. c #BFC5C8",
"`. c #C1C7CA",
"'. c #C4CACC",
"]. c #C9CBCC",
"[. c #C4C5C6",
"{. c #D6CBC7",
"}. c #CACFD1",
"|. c #CCD1D4",
" X c #D2D3D5",
".X c #D2D6D9",
"XX c #D6D9DC",
"oX c #D9DBDE",
"OX c #DDD4D1",
"+X c #DAD2CE",
"@X c #DBDEE1",
"#X c #DEE1E4",
"$X c #E2E4E5",
"%X c #E4E6E9",
"&X c #E7E9EB",
"*X c #EAECEE",
"=X c #EDEFF1",
"-X c #EFF1F2",
";X c #F0F2F3",
/* pixels */
"                                                      *.=.=.e.y.e.r.r.                                                          ",
"                                                o.O.@.&.=.;.e.y.r.r.y.y.r.r.              #                                     ",
"                                            K X.X.+.&.=.;.e.r.r.y.y.r.r.r.r.r.r.      = ; ; ; ;                                 ",
"                            = = = ; ;     K X.o.+.&.*.=.:.e.r.r.y.r.y.r.r.r.r.r.e.  = # @ @ @ # #                               ",
"                          # # @ + @ = ; i K X.o.&.=.=.;.:.e.r.r.r.r.r.r.r.r.r.r.1.6 # X %     o X                               ",
"                        @ X . . . . . + = i o.&.-.=.;.e.1.e.1.1.r.r.r.r.r.r.r.r.X.# +             .                             ",
"                      . .           5 o X # p &.=.3.:.:.1.r.1.r.r.r.r.1.r.r.r.r.& o :.r.                                        ",
"                      .           h g G 5 X @ f -.;.1.1.:.e.r.1.r.r.1.r.r.r.r.-.o h 1.r.r.                                      ",
"                                  g G g g h o $ S ;.;.<.1.1.1.1.:.r.r.r.r.1.r., % 1.r.r.r.r.                                    ",
"                                g g g g h h t $ # G :.1.1.1.1.r.r.r.r.:.1.r.g # H r.r.r.r.r.                                    ",
"                                g g g g h h a t O @ J <.1.1.1.r.r.r.r.r.r.;.% : r.r.r.r.r.r.r.                                  ",
"                              N g G K ..o.o.K h w X $ S :.1.1.1.r.:.r.:.:.& # `.$XQ.r.r.r.a.r.r.                                ",
"                              N B V K X.o.&.3.I.h.1 X @ y =.<.;.:.r.:.:.& # /.#X=X=X^.r.r.r.r.r.                                ",
"                            B g g V ..o.+.&.!.|.@X(._ $ X % p H :.:.X.o ! [.@X%X*X=X;X~.r.r.r.r.r.                              ",
"                            B N G K o.o.+.Z.}.@X@X&X*X@XK.{ q & o.-.X.-.].|.oX%X*X=X;X;Xn.r.r.r.y.                              ",
"                          V N B H K X.o.&.(.}.@X#X#X&X*X;X-X{.%.o.o.-.i.|.B.| @X&X=X;X;X{.r.r.r.y.y.                            ",
"                          C B B V ..X.o.j.).}.XX#X&X*XK.! /.;X4.%.&.=.i.(.| Y.M.%X=X;X;X;Xa.r.r.y.y.y.                          ",
"                        K C B V V X.X.o.v.).'..X#X#X'.E [.E $Xv.o.&.-.u.K.E K.3 %X*X;X;X;XQ.r.r.y.r.y.                          ",
"                        Z B C V Z X.X.o.F.).'..X@X#XM.R E.E B.S.o.&.-.3.K.# R + {.&X=X;X;X^.1.r.r.y.e.t.                        ",
"                      Z C B V K X...X.o.L.).'.|.@X@Xm.* R = | J.o.o.&.-.L.+ 3 + '.$X&X;X;XOX:.r.t.y.t.t.e.                      ",
"                      K H g g X.X.K o.o.G.(.'.}.XX@XL.+ 3 @ M.S.o.+.&.;.S.R X # .X@X$X&X$XoX:.1.r.r.t.t.t.2.                    ",
"                    K V H X.o.H X.X.o.o.C.).`.}..X@X#X; X X  Xv.o.+.%.;.i.Y.Q B.}..X.X@X@X{.:.1.r.r.y.t.e.y.                    ",
"                    X.g X.H X.X.K X.o.o.s./._.'. X@X#X}.} Y.%X3.o.+.&.;.;.G._._.'.}.}.}.|.!.:.r.r.r.r.t.t.t.2.                  ",
"                  X.K H H ..H X.X.X.o.+.3.E.).`.|.XX@X#X#X@X{...o.o.&.-.e.i./._._.`.`._.'.S.1.r.r.1.r.t.t.t.2.,.                ",
"                O...Z Z K K ..X.X.o.o.o.%.Z./.(.].|.@X@X@X@Xg.X.X.o.-.;.;.r.j.(.).).).).[.i.1.1.1.1.1.y.y.t.2.2.>.              ",
"                Z T C C K ........o.o.%.+.3.U./.`.}..X.X.XI.V K o.+.&.=.;.:.1.j.R.[.(.).j.1.;.3.=.1.1.y.y.t.2.2.>.              ",
"              Z Z C B C K K Z X.K o.o.+.%.%.3.U.(.[.}. X~.X.Z X.o.%.-.;.:.r.1.1.r.j.v.i.e.;.+.O.6.*.;.1.y.t.2.2.,.*.            ",
"              ..Z N N C H H Z Z X.X.o.o.+.&.&.&.g.D.D.s.X...X.X.o.%.-.=.1.:.1.1.1.1.e.e.3.+.J F ].J.=.r.y.t.y.2.,.*.            ",
"            ....C N N B B V V V H G J J O.@.@.@.o.o.X.X.Z X.X.X.@.&.&.*.-.3.-.&.&.&.&.&.O.J N h.[.&X*.e.y.y.y.2.,.>.            ",
"            O.Z B N B B B B B B g p !.D.S J K X.K H C V B V C C J J X.X.K J J J G B S S S f p V.'.*XS.;.y.y.t.2.2.>.@.          ",
"            O.Z N B B B B N N g p [ }.-X^ f g f f p p p p p h p f f p f f p p p i i r r i i i T.].=X+X*.y.y.2.2.,.>.O.          ",
"            O.Z N N B B B B N a y F.}.;XH.p u i y w 0 7 7 0 a M J K @.&.=.=.=.&.@.X.K N p r _ T.].&X-Xw.y.y.y.2.2.>.#.          ",
"          O.Z Z N N B B B B N u i (. X-X%Xx y 0 6 7 y S o.&.=.3.;.e.r.r.r.r.r.r.e.e.r.<.e.1.e.p.A.{.%Xz.e.r.e.,.,.*.            ",
"          Z ..Z N N B V V J S i _ R.OX-X=Xz.y N X.-.3.;.e.y.r.r.r.r.y.y.r.r.r.i.r.r.r.r.e.r.r.e.e.;.;.<.<.e.,.,.>.O.            ",
"          Z ..Z g N B B K X.B 0 h.T. X$X~.p.<.<.e.e.r.r.y.r.r.r.r.e.r.e.r.1.e.r.e.e.1.:.e.e.e.e.1.;.;.;.=.*.@.+.K J             ",
"            O.Z g g N V K O.K a  .V.c.4.;.e.e.e.e.y.r.r.e.e.e.e.e.;.e.;.:.;.3.;.=.=.;.3.;.;.;.;.;.=.&.&.@.+.X.K M               ",
"            Z Z N h N N V K X.K K o.=.=.<.<.e.e.1.e.1.<.<.;.=.=.3.&.=.&.&.&.&.&.%.%.%.&.&.&.&.&.+.+.o.X.K J N f i               ",
"              K B h h h B V Z X.o.+.&.=.=.=.=.;.=.=.=.=.&.&.&.+.+.+.o.o.X.X.K K H K H H J J H H J J G g g f u 0                 ",
"              Z C a t h f B V K o.+.+.&.%.*.%.%.%.%.+.+.o.X.K K H B S g g g g f f f f f p p a a p p p p u 8 7                   ",
"                C g r r a p f B G K o.o.+.O.O.X.X.K H V B N g h f a p y y r w r w 8 8 8 6 6 6 6 8 8 7 7 6 6                     ",
"                  N p r 0 r r u p f g G H G G g N g h u i r 7 7 6 6 6 , 6 , , 6 , , , , , , > , , , , ,                         ",
"                    N p r 6 7 6 7 w r y u u u y w w 8 6 , , : : : : : : : : : > : : : : > : > , 6                               ",
"                        i 0 6 , , , , 6 , , , , > : : - : - - : : : : < < 2 < 2 2 q q                                           ",
"                              6 , > : : : : : : > < d d q d d d d d d d s l s l l l b             ,.                            ",
"                                                k.8.] ( n b v v v d s v b n n n W ~ ^ ~   ,.,.,.,.<.,.2.2.<.                    ",
"                                                k.k.9.` ) ~ W n n W n U ~ / ) ` [ [ ) T =.=.4.=.=.,.=.<.4.;.=.                  ",
"                                                l.k.q.] ` ` / U ^ / / ) ` ' 5.8.9./ ) =.*.*.*.*.*.*.=.*.*.*.=.@.                ",
"                                                l.k.q.5.' ` ` ( ) ) ' 5.7.0.d.5./ T -.&.#.&.@.&.&.&.@.@.@.@.@.O.                ",
"                                                x.f.8.9.] ' ` ` ' 5.8.f.x.s.7.^ x 3.O.3.@.@.@.@.@.X.T K J J J J                 ",
"                                                f.f.8.7.5.] ' ] 5.0.k.c.x.8.( E J X.O.O.X.@.X.X.J J S p u i i p i               ",
"                                              e 8.d.8.8.9.9.5.9.0.x.c.x.q.) W p G J X.O.X.T K F f y w i L Y P 9 q               ",
"                                            q 6 n [ 5.5.5.5.9.8.0.x.k.8.( v d f G J K K J J A u w z I Y Y Y Y k ,               ",
"                                        p f p p i n / / ( ) ` ] 5.5.) n l d d f g g J J J M w 9 D Y Y Y I I Y q                 ",
"                                      J J T X.T K S c b b b b b v v l s d d e p f F g F p w q L I I P P P P c ,                 ",
"                                    K @.*.=.*.*.#.$.T S i s s s s 4 2 2     w i p f g f w q c P U L L D c c 9                   ",
"                                    @.;.3.e.,.,.>.*.#.O.F i , : : - - :     8 d i p p i 9 k L c c c c m z q                     ",
"                                  O.3.=.;.:.e.,.>.*.#.@.X.A q : - - - -       9 0 y w 6 2 c m m k k k e                         ",
"                                  K O.3.=.;.;.=.=.3.*.*.@.M q > : - -         , 6 7 6 , j j j j j j 2                           ",
"                                  J X.O.&.-.=.=.=.*.&.&.X.p 6 > - :             > > > < j j j e 2                               ",
"                                  g H 3.@.&.&.3.*.*.3.&.J i 6 > -                 > > 2 e q 2                                   ",
"                                  F H J X.@.+.3.&.&.+.X.A q : :                                                                 ",
"                                    g G J K X.O.X.T G p 6 > :                                                                   ",
"                                      p f g g A f i 8 < ,                                                                       ",
"                                          8 q 8 8                                                                               "
};
