/* XPM */
static char *_5812cf737324419d89bce3ab378e6d1Qx1IBnQ27DuDnP6g[] = {
/* columns rows colors chars-per-pixel */
"64 64 4 1 ",
"  c None",
". c #000001",
"X c #C37100",
"o c #FFCBBA",
/* pixels */
"                                                                ",
"                                                                ",
"                                                                ",
"                                                                ",
"                                                                ",
"                                                                ",
"                                                                ",
"                                                                ",
"                                                                ",
"                                                                ",
"                                                                ",
"                                                                ",
"                                                                ",
"                                                                ",
"                                                                ",
"                                                                ",
"                                                                ",
"                                                                ",
"                                                                ",
"                                                                ",
"                                                                ",
"                                                                ",
"                                                                ",
"                                                                ",
"                                                                ",
"                                                                ",
"                                                                ",
"                                                                ",
"                                                                ",
"                                                                ",
"                                                                ",
"                                                                ",
"                                                                ",
"                                                                ",
"                                                                ",
"                                                                ",
"                                                                ",
"                                                                ",
"                                                                ",
"                                                                ",
"                                                                ",
"                                                                ",
"                                                                ",
"                                                                ",
"                                                                ",
"                                                                ",
"                                                                ",
"                                                                ",
"                              XXXX                              ",
"                           ..XXXXXX..                           ",
"                          ....XXXX....                          ",
"                           XX..XX..XX                           ",
"                           XXoo..ooXX                           ",
"                          XXoo.XX.ooXX                          ",
"                          XXoo.XX.ooXX                          ",
"                         XXXXooXXooXXXX                         ",
"                        XXXoXXXXXXXXoXXX                        ",
"                        XXXoo......ooXXX                        ",
"                        XXX..XXXXXX..XXX                        ",
"                         XXXXXooooXXXXX                         ",
"                           ooooooooo..                          ",
"                            oooooo.....                         ",
"                          ...oooo..XXXX                         ",
"                         .....   .X....                         "
};
