/* XPM */
static char *b8f24b5c7eb94d87841b4c6afdadcf72ZBXfAbkgA6GniZli[] = {
/* columns rows colors chars-per-pixel */
"64 64 225 2 ",
"   c None",
".  c #0B0B0B",
"X  c #040404",
"o  c #190E06",
"O  c #160D07",
"+  c #1D1107",
"@  c #1F1309",
"#  c #151414",
"$  c #1B1B1C",
"%  c #171718",
"&  c #23160A",
"*  c #2D1709",
"=  c #26180B",
"-  c #2C1A0C",
";  c #321B0C",
":  c #391F0E",
">  c #211E1D",
",  c #2E1F14",
"<  c #3C210F",
"1  c #36200F",
"2  c #26201D",
"3  c #332212",
"4  c #3C2412",
"5  c #3D2A16",
"6  c #3C2D1B",
"7  c #34261D",
"8  c #3F311A",
"9  c #1F1F20",
"0  c #242323",
"q  c #2B2B2B",
"w  c #282727",
"e  c #352922",
"r  c #342B26",
"t  c #3E3124",
"y  c #343333",
"u  c #393838",
"i  c #432512",
"p  c #432A16",
"a  c #4B2A15",
"s  c #442D19",
"d  c #4C2A18",
"f  c #512D17",
"g  c #522E18",
"h  c #44321B",
"j  c #4B331D",
"k  c #4D3B1F",
"l  c #54331C",
"z  c #5B341C",
"x  c #52391F",
"c  c #62391F",
"v  c #61371E",
"b  c #6E251B",
"n  c #432F23",
"m  c #4D3522",
"M  c #4D3B24",
"N  c #473929",
"B  c #543A22",
"V  c #5A3D24",
"C  c #563B29",
"Z  c #653B20",
"A  c #6A3D22",
"S  c #7A3725",
"D  c #702F21",
"F  c #480C0C",
"G  c #5D4126",
"H  c #5C442A",
"J  c #5D482B",
"K  c #55442A",
"L  c #594934",
"P  c #4E402D",
"I  c #614327",
"U  c #6E4124",
"Y  c #644529",
"T  c #634C2D",
"R  c #6C4B2C",
"E  c #684529",
"W  c #734326",
"Q  c #794627",
"!  c #764628",
"~  c #794728",
"^  c #714D2E",
"/  c #7D4A2A",
"(  c #7D4827",
")  c #6E542E",
"_  c #6B4E32",
"`  c #664A33",
"'  c #724D33",
"]  c #7D4E33",
"[  c #6B5533",
"{  c #64533B",
"}  c #6B573D",
"|  c #685538",
" . c #755131",
".. c #785F39",
"X. c #755A36",
"o. c #7B613A",
"O. c #3F4142",
"+. c #464545",
"@. c #4E4E50",
"#. c #515151",
"$. c #5B5B5B",
"%. c #6E5B41",
"&. c #6F5545",
"*. c #735E43",
"=. c #775A49",
"-. c #6B5249",
";. c #766146",
":. c #796346",
">. c #7A6549",
",. c #7F694B",
"<. c #736259",
"1. c #5C5F61",
"2. c #67696A",
"3. c #747474",
"4. c #7C7C7C",
"5. c #79736E",
"6. c #834D2B",
"7. c #894D2C",
"8. c #814128",
"9. c #87502E",
"0. c #8A512E",
"q. c #854835",
"w. c #845133",
"e. c #8D5431",
"r. c #8A583B",
"t. c #925632",
"y. c #955933",
"u. c #9B5C35",
"i. c #985E39",
"p. c #90542F",
"a. c #A15E36",
"s. c #A15F39",
"d. c #9D623A",
"f. c #9F6037",
"g. c #836739",
"h. c #A16037",
"j. c #A4633A",
"k. c #AA663B",
"l. c #AE683D",
"z. c #A5683D",
"x. c #B16A3E",
"c. c #865D46",
"v. c #895645",
"b. c #826B4D",
"n. c #84634C",
"m. c #976549",
"M. c #856F50",
"N. c #8A6B5B",
"B. c #8C7454",
"V. c #867051",
"C. c #947C5A",
"Z. c #997A57",
"A. c #8C6F56",
"S. c #AD6C40",
"D. c #A36948",
"F. c #B26E41",
"G. c #B37144",
"H. c #B3744D",
"J. c #A8765A",
"K. c #A36F54",
"L. c #8B7C74",
"P. c #8D726A",
"I. c #A87C65",
"U. c #9B825E",
"Y. c #A5865D",
"T. c #9E8364",
"R. c #998478",
"E. c #8F837C",
"W. c #A18662",
"Q. c #A58964",
"!. c #A98B65",
"~. c #AC866B",
"^. c #B2956E",
"/. c #B6986F",
"(. c #A78474",
"). c #B89777",
"_. c #B28E72",
"`. c #C8A77C",
"'. c #7E8284",
"]. c #8A8B8B",
"[. c #9B938D",
"{. c #949391",
"}. c #999999",
"|. c #978B84",
" X c #AD9689",
".X c #B59786",
"XX c #A29E9C",
"oX c #BBA599",
"OX c #A9A8A8",
"+X c #B3A8A2",
"@X c #AEB2B4",
"#X c #B3B4B5",
"$X c #BCBDBD",
"%X c #B6B6B6",
"&X c #AFAFAE",
"*X c #C2A99A",
"=X c #D1AF80",
"-X c #C1ADA6",
";X c #C9BBB3",
":X c #C5B2AE",
">X c #CBC1BA",
",X c #D1C2B9",
"<X c #BABEC0",
"1X c #BEC2C3",
"2X c #BEC5C8",
"3X c #C4C5C5",
"4X c #CBCBCC",
"5X c #CAC9C7",
"6X c #D5CDC8",
"7X c #CED2D4",
"8X c #D4D4D4",
"9X c #DCDCDC",
"0X c #D5DADC",
"qX c #D3D0CE",
"wX c #E0DEDC",
"eX c #D9DEE0",
"rX c #DEE4E6",
"tX c #E3E3E3",
"yX c #EAEAEB",
"uX c #E3E8E9",
"iX c #EBEFF0",
"pX c #EDF0F1",
"aX c #F3F4F4",
"sX c #FCFCFC",
"dX c #F6F8F9",
/* pixels */
"                                                          k.k.z.z.j.j.i.s.                                                      ",
"                              y y                 k.l.k.l.k.k.k.k.j.j.s.a.u.u.u.y.                                              ",
"                          y u u u u q         l.l.l.l.l.k.k.k.k.k.j.j.j.j.i.u.u.y.y.y.t.                                        ",
"                        q w $ 0 q y y q   l.l.l.l.l.l.l.x.k.k.k.j.k.j.j.j.a.u.y.u.y.e.t.e.      q w q q w w                     ",
"                      $ % . . . # 9 y y N i.F.l.x.l.x.x.k.k.k.k.k.j.k.j.j.a.u.u.u.y.t.t.e.R r q w w w 0 0 0 0                   ",
"                      # .           e q q C k.l.k.F.k.x.k.x.k.k.j.k.h.j.a.a.u.u.u.y.t.6.C q w > $ % % % # % $ $                 ",
"                                  i.e.C q w ' S.x.k.x.k.k.x.k.k.k.h.j.h.j.u.a.u.y.y.q.N q 9 > e m 6     . . . # %               ",
"                                j.j.S.j.C 0 e r.x.k.k.l.k.k.k.k.j.k.h.j.h.u.u.u.u.] n 0 > t A 6.7.9.          . .               ",
"                                s.k.k.x.a.m $ C k.l.k.k.k.k.k.k.j.j.h.j.s.u.y.y.6.r $ > h A W / 6.6.6.                          ",
"                              j.k.k.k.k.k.t.e 2 w.l.k.k.S.k.j.j.j.h.h.u.u.y.t.q.e % , g z c A A W / 6.                          ",
"                            j.k.k.k.k.k.k.k.' 9 n s.k.k.k.k.k.k.j.u.u.u.y.t./ e % , g g z c Z A W W ~ 6.                        ",
"                          j.j.k.k.k.k.s.J.*X6X3.0 C k.k.j.s.k.j.u.e.u.y.e.! e % e g g Z U ~ ~ S W W ! / 6.                      ",
"                          j.j.k.k.k.j..XwXsXsXaX3.2 C u.s.i.k.j.6.6.t.7.C , 0 $.3.5.=./ 6.6.6.6.6./ Q Q 6.                      ",
"                        j.k.k.k.k.k.).yXsXsXsXsXaX}.O.n A y.k.u.A Z B 7 w @.{.$X4X4X@XN.6.6.6./ 6.6.6./ / 6.                    ",
"                      j.k.k.k.k.j.J.wXsXsXsXsXsXsXsX7X=.m ~ 0.W n 6 +.].%X9XtXtX9X8X4X&Xc./ 6.6.6.6.6./ / 6.                    ",
"                    j.j.k.k.k.k.z.;XsXsXsXsXsXuXOX$XiX.Xs.y.~ W y.c.%XwXwXuXtXtX9X9XqX3X[.] / 6./ 6.6.6.6./ e.                  ",
"                    k.k.k.k.x.a.~.yXsXsXsXsXyX3.}.$.@XoXj.k.j.j.m.I.2X4.$.4.9XtXwX9X8X4X#Xc.( 6.6.6.6.6.( ( 9.                  ",
"                  s.k.k.l.l.x.s.-XaXsXsXsXsX{.#.0X1.2.*Xj.j.h.a.t.+X1.2.%XO.{.tXwX9X8X4X<XL.( 6.6.6.8.6.6.6.( 9.                ",
"                k.j.k.k.l.l.x.D.6XsXsXsXsXdX#.0 @.0 2..Xs.k.a.u.m.XX0 @.'.q #.wXwX9X8X4X3X[.] 6.6.9.6.6.6.( ( 6.e.              ",
"              k.k.k.x.x.l.l.k.J.tXdXdXsXsXaX+.% u % ].~.s.j.u.y.m.}.% q y . @.eXeX9X8X4X<X}.w.6.6.6.6.9.6.6.6.6.9.              ",
"            z.k.k.x.x.k.x.x.s.I.tXdXdXsXsXsX4.X . O.$XD.j.j.u.y.n.OX> % 9 X 4.tXwX9X8X5X1X}.] 6.0.9.6.6.9.6.6.6.6.9.            ",
"          k.k.k.k.x.k.x.x.x.s.I.tXaXsXsXsXsXtX2.2.2XoXu.j.j.u.t.v.%X1.X X O.qXtX9X9X8X3X%X[.6.9.0.6.6.9.9.6.6.6.6.9.            ",
"        k.k.k.x.x.k.k.x.x.k.k.K.wXdXsXsXsXsXsXdXiX7XK.a.j.a.y.t.e.+X4X}.{.4XtXwX9X8X4X3X#X].6.p.0.0.9.6.6.0.6.6.6.6.9.          ",
"      j.k.l.l.x.k.x.x.x.k.k.k.s.;XaXdXdXdXdXdXyXeX_.a.k.j.h.u.y.q.L.8XtXuXtXtX9X8XqX3X<XOXN.7.0.0.0.7.7.6.6.6.( 6.6.6.9.        ",
"      k.x.l.x.l.l.l.l.l.k.k.k.a.(.uXaXpXpXpXrX0X Xi.k.k.k.a.u.y.t.v.:X0X9X9X9X8X4X3X<X@X{.=.0.y.0.9.6.6.q./ / / / / 6.6.        ",
"    j.S.S.x.l.l.l.z.f.u.a.a.j.k.j..X0XrXrXeX<X(.s.k.l.l.k.j.u.u.u.p.N.$X7X7X4X5X1X<X#XXXn.7.y.y.0.9.6.6.6.6./ ~ ~ ( 6.6.9.      ",
"    S.F.x.x.l.z.h.f.p.m.Z.y.u.j.s.s.J. X.XI.m.a.k.k.k.k.k.j.u.u.y.p.7.A.OX2X2X<X#X@X{.c.7.e.y.e.0.9.6.6.6./ ~ ! ! W ! / 6.e.    ",
"  k.F.F.x.l.z.f.y.0.r.6X>Xr.7.0.u.a.a.a.a.a.a.j.j.j.s.s.u.u.y.y.p.p.7.7.q.N.R.|.L.N.w.6.e.e.7.6.9.7.6.6./ / / ! W W W ! / 6.    ",
"  S.G.G.G.S.j.d.e.( .XaX8XR.! ( 6.7.t.t.t.t.y.y.p.7.7.p.0.7.6.6./ / / ( / / / 6.6./ 6.6.6.6.6.] 6./ / / ~ ! ! ~ ! U W W ! 6.e.  ",
"d.S.G.G.G.S.z.i.(  .6XyX4X+X! A A W Q Q Q W ! S W W A A A A A A A A U S W ! W W W U A A U c ' ;X X! ! ~ ! W ! A U W U U W / e.  ",
"d.S.S.G.S.S.j.e.U L.yXtX5X$X<.f z z v Z Z Z v v z z f a a i a a d l g l z z z V z z l f a a  XdX5X&.c U ! ! A W ! E W A A Q 9.e.",
"i.z.S.S.G.S.d.w.S +XyXwX3X&X(.S 8.7.t.y.u.u.a.u.u.u.y.y.0.6.Q U c z g a a i a i a i a p a &.tXyX5XL.p Z A ! ! ! W W U A A W w.y.",
"r.d.z.l.F.F.z.y.q.:X,X*X_.H.F.F.x.x.x.l.x.l.l.l.k.k.k.k.k.k.k.j.k.j.a.u.9.6.U z f f a a f +XaXwX1XXXn a U W ! ^ ! U U c I W 9.t.",
"  t.d.k.k.k.k.k.F.H.G.x.x.l.l.k.k.j.k.j.h.h.h.h.j.a.s.a.u.a.u.u.u.u.a.j.j.h.h.u.y.7.S b v.wXuX9X;X@X-.; z ! / / ! W U c c W 9.e.",
"  9.y.u.i.j.j.j.a.s.a.a.a.a.a.u.u.y.y.t.y.t.y.y.y.y.y.y.y.y.y.y.y.y.y.y.y.y.u.y.y.y.y.t.m..X;X5X$X&X<.F U d.e.9. .W c c I ! 0.i.",
"    9.0.y.y.u.u.a.a.u.u.y.u.p.0.0.9.e.0.0.0.0.0.9.6.0.9.9.6.7.7.9.9.9.9.9.7.0.0.p.0.0.e.7.7.i.K.I.L.N.b y.d.t.9.W A c c A / 9.e.",
"    W ~ 6.7.9.0.p.0.0.0.7.6.6.6.6.8.9.( 6.6.8.( 6.6./ 6.6.6./ 6./ 6.( 6.( ( / 6.6.8.( ( ( ( 8.6.q.6.9.9.0.9./ W U Z z Z W / 0.t.",
"      Z A A Q Q ( ( / ( ( ( ! W W ! W ! W Q W W W A W A A W A Q W W W Q ! ! W W Q ( W W U U W Q W A ! S ! W A c z z c U ( 9.0.  ",
"        l z v v Z A A A c c A c A c A c c c c c v c v v v c c A c c c A c A A c c c c c c c c c A A A A c c z z z A A W / 9.    ",
"            i a a g g g z z g z z z l z z g l f f f f f f g z g z v z v v v v c z z z z z l g g z l z z z z z v Z A U  ./       ",
"                ; ; : : < 4 4 i i i i i : : i : < < < < i i i a a a f f f f g a f a a a a i i i a a f l g z z c c A ! (         ",
"                      - * * * ; * * ; * ; ; ; * * ; * ; * * ; ; ; : : : < i i i i < < < < : i i i a a g g z z c A U             ",
"                                    h N m m x m m j h 8 p 4 1 , ; * * * ; * * * ; ; ; : ; < 4 i a a a f g z z I                 ",
"                  _  .' _           } %.} *.*.*.;.:.:.:.:.:.....} ` T V x j s p < < : 1 : i i a i i a f l                       ",
"             . .'  . .^ R R R R   { { { %.%.%.*.*.;.;.;.>.>.,.,.b.b.V.B.Z.Z.U.Y.Y.Y.                                            ",
"           .X. .X. . .^ ^ R R Y Y Y H { } } %.%.;.;.;.;.;.>.>.>.>.b.b.V.B.C.U.!.`.=X                                            ",
"        ^  . . . . . . .^ R R Y Y I H I ..,.:.%.*.%.*.*.;.;.;.>.,.,.b.b.B.C.U.!.^.`.                                            ",
"      R R R ^ ^ ^ ^ ^ R R R E Y I I V V T ,.U.T.B.,.;.;.;.;.;.>.:.,.,.b.B.C.U.!.^.`.                                            ",
"      I I I I Y E E T R E E E G G V V V V G %.B.^./.Q.C.V.,.:.;.:.>.>.M.B.C.U.Q.^.`.                                            ",
"      x j k j x x G c I I I G G V B B x B G E L ;.T./.^.!.U.B.V.>.:.>.,.V.B.C.W.!.`.                                            ",
"      s x ) ) T G k j x x x B x B m x x x V I H L { B.!.Q.Q.U.U.V.,.>.,.M.B.C.W.^.!.Y                                           ",
"      5 T g.o...X.X.T x j j j k j h d h x V I Y P L L :.B.U.U.B.B.,.>.,.M.B.C.Q.W.| j m B                                       ",
"      3 G ........X...X.E s 5 p s 5 5 s j V G Y M N P P { ;.>.:.*.*.*.>.b.B.C.b.H j d j m B                                     ",
"        5 T X.[ [ [ [ X.X.) s 3 5 3 4 5 d x V Y M t t n N P P P L L %.*.;.} H B m x j j j j B V                                 ",
"          h G J J T J T T ) J 3 - 3 3 3 s j V I T     7 6 t N P N N N M B Y ^ R R Y I G V V V V G                               ",
"            8 k K K J J J J G k = = & ; 5 j B G       @ @ = - ; 3 3 5 V ^ X. . . .^ ^ R R _ E I I                               ",
"                8 k P k k P k k 3 + + = 1 h x G       o + & & - - 3 x R '  .^  .^ R ^ ^ ) R R Y H Y                             ",
"                    8 k k 8 8 8 8 & + & ; s j G         O o @ & = - j Y ^ ^ ^ ^ R R R Y Y I I V V V                             ",
"                        8 8 8 6 8 3 + + = 5 j             O o o @ & 5 G R R R R R E Y I G V B B x B                             ",
"                            8 6 8 5 = @ = 5                   O O + - k Y E Y Y Y I G G B B x j j B                             ",
"                                      =                         O O + 5 x V V G G V B m j j s s s B                             ",
"                                                                    O - p h j j j m j s p 5 5 5 j m                             ",
"                                                                          3 3 3 3 3 3 3 - - , 4 j                               ",
"                                                                                @ @ @ @ & - 3                                   "
};
