/* XPM */
static char *result[] = {
/* columns rows colors chars-per-pixel */
"64 64 6 1 ",
"  c #060040",
". c #002040",
"X c #002B55",
"o c #0A0064",
"O c #0C0071",
"+ c #00376F",
/* pixels */
"++++++++++++++++++++++++++++++++++++++++++++++++++++++++++++++++",
"X..............................................................+",
"X.OOOOOOOOOOOOOOOOOOOOOOOOOOOOOOOOOoooooooooooooooooo         .+",
"X.OOOOOOOOOOOOOOOOOOOOOOOOOOOOOOOOOoooooooooooooooooo         .+",
"X.OOOOOOOOOOOOOOOOOOOOOOOOOOOOOOOOOoooooooooooooooooo         .+",
"X.OOOOOOOOO..OOOOOOOOOOOOOOOOOOOOOOoooooooooooooooooo         .+",
"X.OOOOOOO..++.OOOOOOOOOOOOOOOOOOOOOoooooooooooooooooo         .+",
"X.OOOOOO..+X..OOOOOOOOOOOOOOOOOOOOOoooooooooooooooooo         .+",
"X.OOOOO..+XX.OOOOOOOOOOOOOOOOOOOOOOoooooooooooooooooo         .+",
"X.OOOOO.+XX.OOOOOOOOO....OOOOOOOOOOoooooooooooooooooo         .+",
"X.OOOO.+XX.OOOOOOOO..+++.OOOOOOOOOOoooooooooo.....ooo         .+",
"X.OOOOO...OOOOOOO..++XX..OOOOOOOOOOoooooooo...+++.ooo         .+",
"X.OOOOOOOOOOOOO...++XX..OOOOOOOOOOOooooooo..+++XX.ooo         .+",
"X.OOOOOOOOOOO..++++XX.OOOOOOOOOOOOOoooooo..++XXX.oooo         .+",
"X.OOOOOOOOOO..++XXXX.OOOOOOOOOOOOOOooooo.++XX...ooooo         .+",
"X.OOOOOOOOO..++XXXX.OOOOOOOOOOOOOOOooo..+XXX.oooooooo         .+",
"X.oooooooo..++XXX..oooooooooooooooooo..+XXX.ooooooooo         .+",
"X.oooooooo.++XX...oooooooooooooooooo.++XXX.oooooooooo ..      .+",
"X.oooooooo.+XX.oooooooooooooooooooo.++XXX.ooooooooooo.++.     .+",
"X.oooooooo.X.ooooooooooooooooooooo.++XX..oooooooooooo.+X.     .+",
"X.ooooooooo.ooooooooooooooooooooo.+XX..ooooooooooooo..+X.     .+",
"X.oooooooooooooooooooooooooooooo.+XX.ooooooooooooooo.+X.      .+",
"X.                             ..XX.               .+X.       .+",
"X.                             .X..               .+X.        .+",
"X.                             ...               ..X.         .+",
"X.                                               .+.          .+",
"X.                                               ..           .+",
"X.                                                            .+",
"X.                                                            .+",
"X.                                                            .+",
"X..............................................................+",
"XXXXXXXXXXXXXXXXXXXXXXXXXXXXXXXXXXXXXXXXXXXXXXXXXXXXXXXXXXXXXXX+",
"++++++++++++++++++++++++++++++++++++++++++++++++++++++++++++++++",
"...............................+X...............................",
"OOOoooooooooooooooooo         .+X.OOOOOOOOOOOOOOOOOOOOOOOOOOOOOO",
"OOOoooooooooooooooooo         .+X.OOOOOOOOOOOOOOOOOOOOOOOOOOOOOO",
"OOOoooooooooooooooooo         .+X.OOOOOOOOOOOOOOOOOOOOOOOOOOOOOO",
"OOOoooooooooooooooooo         .+X.OOOOOOOOOOOOOOOOOOOOOOOOOOOOOO",
"OOOooo...oooooooooooo         .+X.OOOOOOOOOOOOOOOOOOOOOOOOOOOOOO",
"OOOoo..+X.ooooooooooo         .+X.OOOOOO...OOOOOOOOOOOOOOOOOOOOO",
"OOOo..+XXoooooooooooo         .+X.OOOOO..++.OOOOOOOOOOOOOOOOOOOO",
"OOOo.+XXooooooooooooo         .+X.OOOOO.++..OOOOOOOOOOOOOOOOOOOO",
"OOOo++Xoooooooooo..oo         .+X.OOOO.++X.OOOOOOOOOOOOOOOOOOOOO",
"OOO.+XXoooooooo.....o         .+X.OOOO.+XXOOOOOOOOOOOOOOOOOOOOOO",
"OOO.XXoooooooo..+++.o         .+X.OOOO.XX.OOOOOOOOOO....OOOOOOOO",
"OOO..oooooooo..++XX.o         .+X.OOO.XX.OOOOOOOOO...+XX.OOOOOOO",
"OOOooooooooo..++XXXoo         .+X.OO.+X.OOOOOOOO...++XX.OOOOOOOO",
"OOOooooooooo.++XX..oo         .+X.OO.X.OOOOOOOO..+++XX.OOOOOOOOO",
"ooooooooooo..+XX..ooo         .+X.oo...oooooooo.+++XX.oooooooooo",
"oooooooooo.++XX.ooooo         .+X.ooooooooooooo.++XX.ooooooooooo",
"ooooooooo.+XXX.oooooo         .+X.oooooooooooo.+++X.oooooooooooo",
"oooooooo.+XX..ooooooo         .+X.oooooooooooo.++XXooooooooooooo",
"oooooooo.+...oooooooo         .+X.ooooooooooooo.XXoooooooooooooo",
"oooooooo...oooooooooo         .+X.oooooooooooooo..oooooooooooooo",
"                              .+X.                              ",
"                              .+X.                              ",
"                              .+X.                              ",
"                              .+X.                              ",
"                              .+X.                              ",
"                              .+X.                              ",
"                              .+X.                              ",
"                              .+X.                              ",
"...............................+X...............................",
"XXXXXXXXXXXXXXXXXXXXXXXXXXXXXXX+XXXXXXXXXXXXXXXXXXXXXXXXXXXXXXXX"
};
