/* XPM */
static char *result[] = {
/* columns rows colors chars-per-pixel */
"64 64 7 1 ",
"  c #04002D",
". c #050037",
"X c #004235",
"o c #060042",
"O c #005342",
"+ c #005E4A",
"@ c #00755A",
/* pixels */
"                                                                ",
" XXXXXXXXXXXXXXXXXXXXXXXXXXXXXXXXXXXXXXXXXXXXXXXXXXXXXXXXXXXXXX ",
" X                                                            X ",
" X                                                            X ",
" X                                                            X ",
" X                                                            X ",
" X                                                            X ",
" X     OOOOOOOOOOOOOOOOOOOOOOOOOOOOOOOOOOOOOOOOOOOOOOOOOO     X ",
" X     O................................................O     X ",
" X     O................................................O     X ",
" X     O................................................O     X ",
" X     O................................................O     X ",
" X     O................................................O     X ",
" X     O................................................O     X ",
" X     O......++++++++++++++++++++++++++++++++++++......O     X ",
" X     O......+oooooooooooooooooooooooooooooooooo+......O     X ",
" X     O......+oooooooooooooooooooooooooooooooooo+......O     X ",
" X     O......+oooooooooooooooooooooooooooooooooo+......O     X ",
" X     O......+oooooooooooooooooooooooooooooooooo+......O     X ",
" X     O......+oooooooooooooooooooooooooooooooooo+......O     X ",
" X     O......+oooooooooooooooooooooooooooooooooo+......O     X ",
" X     O......+oooooooooooooooooooooooooooooooooo+......O     X ",
" X     O......+ooooooo@@@@@@@@@@@@@@@@@@@@ooooooo+......O     X ",
" X     O......+ooooooo@oooooooooooooooooo@ooooooo+......O     X ",
" X     O......+ooooooo@oooooooooooooooooo@ooooooo+......O     X ",
" X     O......+ooooooo@oooooooooooooooooo@ooooooo+......O     X ",
" X     O......+ooooooo@oooooooooooooooooo@ooooooo+......O     X ",
" X     O......+ooooooo@oooooooooooooooooo@ooooooo+......O     X ",
" X     O......+ooooooo@oooooooooooooooooo@ooooooo+......O     X ",
" X     O......+ooooooo@oooooooooooooooooo@ooooooo+......O     X ",
" X     O......+ooooooo@oooooooooooooooooo@ooooooo+......O     X ",
" X     O......+ooooooo@oooooooooooooooooo@ooooooo+......O     X ",
" X     O......+ooooooo@oooooooooooooooooo@ooooooo+......O     X ",
" X     O......+ooooooo@oooooooooooooooooo@ooooooo+......O     X ",
" X     O......+ooooooo@oooooooooooooooooo@ooooooo+......O     X ",
" X     O......+ooooooo@oooooooooooooooooo@ooooooo+......O     X ",
" X     O......+ooooooo@oooooooooooooooooo@ooooooo+......O     X ",
" X     O......+ooooooo@oooooooooooooooooo@ooooooo+......O     X ",
" X     O......+ooooooo@oooooooooooooooooo@ooooooo+......O     X ",
" X     O......+ooooooo@oooooooooooooooooo@ooooooo+......O     X ",
" X     O......+ooooooo@oooooooooooooooooo@ooooooo+......O     X ",
" X     O......+ooooooo@@@@@@@@@@@@@@@@@@@@ooooooo+......O     X ",
" X     O......+oooooooooooooooooooooooooooooooooo+......O     X ",
" X     O......+oooooooooooooooooooooooooooooooooo+......O     X ",
" X     O......+oooooooooooooooooooooooooooooooooo+......O     X ",
" X     O......+oooooooooooooooooooooooooooooooooo+......O     X ",
" X     O......+oooooooooooooooooooooooooooooooooo+......O     X ",
" X     O......+oooooooooooooooooooooooooooooooooo+......O     X ",
" X     O......+oooooooooooooooooooooooooooooooooo+......O     X ",
" X     O......++++++++++++++++++++++++++++++++++++......O     X ",
" X     O................................................O     X ",
" X     O................................................O     X ",
" X     O................................................O     X ",
" X     O................................................O     X ",
" X     O................................................O     X ",
" X     O................................................O     X ",
" X     OOOOOOOOOOOOOOOOOOOOOOOOOOOOOOOOOOOOOOOOOOOOOOOOOO     X ",
" X                                                            X ",
" X                                                            X ",
" X                                                            X ",
" X                                                            X ",
" X                                                            X ",
" XXXXXXXXXXXXXXXXXXXXXXXXXXXXXXXXXXXXXXXXXXXXXXXXXXXXXXXXXXXXXX ",
"                                                                "
};
