/* XPM */
static char *result[] = {
/* columns rows colors chars-per-pixel */
"64 64 8 1 ",
"  c #2D0003",
". c #350F00",
"X c #3C1000",
"o c #441300",
"O c #A05A0B",
"+ c #D07C14",
"@ c #E3901D",
"# c #E3A64B",
/* pixels */
"@@@@+O@@@@@@@+O+@@@@@+O+@@@@@@+O+@@@@@@+O@@@@@@@O+@@@@@@@+O+@@@@",
"@@@@+O@@@@@@@+O+@@@@@+O+@@@@@@+O+@@@@@@+O@@@@@@@O+@@@@@@@+O++@@@",
"@@@@+O@@@@@@@+O+@@@@@+O+@@@@@@+O+@@@@@@+O@@@@@@@O+@@@@@@@+O++@@@",
"@@@@O+@@@@@@+O++@@@@@+O+@@@@@@+O+@@@@@@+O@@@@@@@+O+@@@@@@@+O++@@",
"@@@+O+@@@@@@+O++@@@@@+O+@@@@@++O+@@@@@@+O+@@@@@@@O+@@@@@@@+O++@@",
"@@@+O@@@@@@@+O++@@@@+O++@@@@@+O++@@@@@@++O@@@@@@@O+@@@@@@@+O++@@",
"@@@+O@@@@@@@+O+@@@@@+O++@@@@@+O+@@@@@@@@+O@@@@@@@O+@@@@@@@+O++@@",
"@@@O+@@@@@@@+O+@@@@@+O+@@@@@@+O+@@@@@@@@+O@@@@@@@O+@@@@@@@++O+@@",
"@@@O+@@@@@@@+O+@@@@@+O+@@@@@@+O+@@@@@@@@+O@@@@@@@O++@@@@@@++O+@@",
"@@+O+@@@@@@+O++@@@@@+O+@@@@@@+O+@@@@@@@@+O@@@@@@@+O+@@@@@@@+O+@@",
"@@+O+@@@@@@+O++@@@@@+O+@@@@@@+O+@@@#@@@@+O@@@@@@@+O+@@@@@@@+O++@",
"@@+O+@@@@@@+O++@@@@@+O+@@@@@@+O+@@@##@@@+O@@@@@@@+O+@@@@@@@+O++@",
"@+O++@@@@@@+O++@@@     @@@@@++O+@@###@@@+O+@@@    O+@@@@@@@++O+@",
"@+O++@@@@@@+O+     ooo   @@@++O+@@###@@@+O+    oo   @@@@@@@++O+@",
"@+O+@@@@@@@   oooooooooo  @@+O++@@###@@@    ooooooo   @@@@@++O+@",
"@+O+@@@@    oooooooooooooo  +O++@@###@@  oooooooooooX @@@@@@+O+@",
"++O+@@@@ ooooooooooooooooXX  O++@@###@@ ooooooooooooXX @@@@@+O++",
"+O++@@@ ooooooooooooooooXXXX O++@@##@@  oooooooooooXXX  @@##++O+",
"+O++@@  oooooooooooooooXXXXXX +@@@@@@@ oooooooooooXXXXX @@##++O+",
"+O++@@ oooooooooooooooXXXXXXX  @@@@@@@ oooooooooooXXXXX  @##++O+",
"+O++@@ oooooooooooooXXXXXXXX.. @@@@@@ oooooooooooXXXXXXX @##++O+",
"+O++@  ooooooooooXXXXXXXXX.... @@@@@@ ooooooooooXXXXXX.. @##++O+",
"+O+@@ ooooooooXXXXXXXXXXX..... @@@@@  ooooooooXXXXXXX... @##++O+",
"O++@@ oooooXXXXXXXXXXXX....... @@@@@ ooooooXXXXXXXX...... ##@++O",
"O++@@ XXXXXXXXXXXXXXX......... @@@@@ XXXXXXXXXXXXX....... ##@++O",
"O++@@ XXXXXXXXXXXXX........... @@@@@ XXXXXXXXXX.........  @@@++O",
"O++@@ XXXXXXXXXX.............  @@@@@ XXXXX.............. @@@@++O",
"O++@@ .....            ....  ++@@@@@@ ....       ....... @@@@++O",
"O++@@ .    ++###@@+O++  ..  O++@@@@@@ ..   O@@@@@  ....  @@@@++O",
"O++@@@  @+O++###@@+O++@@   +O++@@@@@@   @++O+@@@@@  ..  @@@@@++O",
"O++@@@@@@+O++###@@+O++@@ @@+O++@@@@@@@@@@++O+@@@@@@    @@@@@@++O",
"O++@@@@@@+O++###@@+O++@@@@@+O++@@@@@@@@@@++O+@@@@@@+O++@@@@@@++O",
"O++@@@@@++O++@##@@+O++@@@@@+O++@@@@@@@@@@++O+@@@@@@+O++@@@@@@++O",
"O++@@@@@++O++@#@@@+O++@@@@@+O++@@@@@@@@@@++O+@@@@@@+O++@@@@@@++O",
"O++@@@@@++O++@@@@@+O++@@@@@+O++@@@@@@@@@@++O+@@@@@@+O++@@@@@@++O",
"O++@@@@@++O++@@@@@+O++@@@@@+O++@@@@@@@@@@++O+@@@@@@+O++@@@@@@++O",
"O++@@@@@++O+ @@@@@+O++@@@@@+O++@@@@@@@@@@++O+@@@@@@+O++@@@@@@++O",
"O++@@@@@++O+  @@@@+O++@@@@@+O++@@@@@@@@@@++O+@@@@@@+O++@@@@@@++O",
"O++@@@@@++O o  @@@+O++@@@@@+O++@@@@@@@@@@++O+@@@@@ +O++@@@@@@++O",
"O++@@@@@++O oo   @+O++@@@@@+O++@@@@@@@@@@++O+@@@@   O++@@@@@@++O",
"O++@@@@@++  oooo  +O++@@@@@+O++@@@@@@@@@@++O+@@@  X O++@@@@@@++O",
"O++@@@@@++ oooooo   ++@@@@@+O++@@@@@@@@@@++O+@@  oo O++@@@@@@++O",
"+O+@@@@@++  oooooo  ++@@@@@   +@@  @@@@@@++O+@  ooX O++@@@@@@+O+",
"+O+@@@@@++O ooooooo  +@@@@  o       @@@@@++O   ooXX O++@@@@@++O+",
"+O+@@@@@++O oooooooo +@@@@ oooooooo @@@@@++O XooXXX O++@@@@@++O+",
"+O+@@@@@++O oooooooo +@@@ ooooooooo  @@@@++ XooXXXX O++@@@@@++O+",
"+O++@@@@@+O ooooooooo @@@ oooooooooo @@@@+  ooXXXXX O++@@@@@++O+",
"+O++@@@@@++O oooooooo  @ oooooooooooo  @@+ ooXXXXXX +++@@@@@++O+",
"++O+@@@@@++O ooooooooo   ooooooooooooo  @ ooXXXXXX. ++@@@@@@+O++",
"@+O+@@@@@++O  ooooooooooooooooooooooooo  ooXXXXXX. O++@@@@@@+O++",
"@+O+@@@@@++O+ ooooooooooooooooooooooooooooXXXXXX. +O++@@@@@@+O+@",
"@+O+@@@@@++O+ oooooooooooooooooooooooooooXXXXXX.. +O+@@@@@@@+O+@",
"@+O+@@@@@++O+  ooooooooooooooooooooooooXXXXXX... @+O+@@@@@@@+O+@",
"@+O+@@##@++O+@  ooooooooooooooooooooXXXXXXXX... @@+O+@@@@@@@+O+@",
"@++O@@##@+++O@@ oooooooooooooooXXXXXXXXX...... @@+O++@@@@@@@O++@",
"@@+O@@##@+++O@@@ ooooooooXXXXXXXXXXX........  #@@+O++@@@@@@@O+@@",
"@@+O@@##@@++O@@@@  XXXXXXXXXX.............   @@@@+O++@@@@@@+O+@@",
"@@+O@@##@@++O@@@@@  ..................    ++@@@@@+O++@@@@@@+O+@@",
"@@+O@@@@@@++O@@@@@++     ......       @@+O++@@@@@+O++@@@@@@+O+@@",
"@@++O@@@@@++O+@@@@+++O@@        @@@@@@@@+O++@@@@@+O+@@@@@@@O++@@",
"@@++O@@@@@+++O@@@@+++O@@@@@@++O@@@@@@@@@+O++@@@@@O++@@@@@@@O+@@@",
"@@@+O@@@@@+++O@@@@+++O@@@@@@++O+@@@@@@@@+O+@@@@@@O++@@@@@@@O+@@@",
"@@@+O@@@@@+++O@@@@+++O@@@@@@++O+@@@@@@@@+O+@@@@@@O++@@@@@@@O+@@@",
"@@@+O@@@@@+++O@@@@+++O@@@@@@++O+@@@@@@@@+O+@@@@@@O+@@@@@@@@O+@@@"
};
