/* XPM */
static char *result[] = {
/* columns rows colors chars-per-pixel */
"64 64 7 1 ",
"  c #5D5D5D",
". c #646464",
"X c DimGray",
"o c #7E7E7E",
"O c gray52",
"+ c #8D8D8D",
"@ c #959595",
/* pixels */
"                                                                ",
" ooooooooooooooooooooooooooooooX ooooooooooooooooooooooooooooooX",
" o@@@@@@@@@@@@@@@@@@@@@++++OOOoX o@@@@@@@@@@@@@@@@@@@@@++++OOOoX",
" o@@@@@@@@@@@@@@@@@@@@@++++OOOoX o@@@@@@@@@@@@@@@@@@@@@++++OOOoX",
" o@@@@@@@@@@@@@@@@@@@@@++++OOOoX o@@@@@@@@@@@@@@@@@@@@@++++OOOoX",
" o@@@@@@@@@@@@@@@@@@@@@++++OOOoX o@@@@@@@@@@@@@@@@@@@@@++++OOOoX",
" o@@@@@@@@@@@@@@@@@@@@@++++OOOoX o@@@@@@@@    @@@@@@@@@++++OOOoX",
" o@@@@@@@@@@@@@@@@@@@@@++++OOOoX o@@@@@@@  ..  @@@@    ++++OOOoX",
" o@@@@@@@@@@@@        @++++OOOoX o@@@@@@  .XX.. @  ... ++++OOOoX",
" o++++++++++++ ++++++++++++OOOoX o+++++ ..XXXXX   .XX. ++++OOOoX",
" o+++++++++++ +++++++++++++OOOoX o++++ .  .XXX.. .X... ++++OOOoX",
" o++++++++++  +++++++++++++OOOoX o+++ .   .XX.  ...  . ++++OOOoX",
" oOOOOOOOO   OOOOOOOOOOOOOOOOOoX oOO   OOO ...  .   O  OOOOOOOoX",
" oOOOOOOOO OOOOOOOOOOOOOOOOOOOoX oOO  OOOO .  O   OOOOOOOOOOOOoX",
" ooooooooooooooooooooooooooooooX ooooooooo   ooooooooooooooooooX",
" XXXXXXXXXXXXXXXXXXXXXXXXXXXXXXX XXXXXXXXXXXXXXXXXXXXXXXXXXXXXXX",
"                                                                ",
"oooooooooooooooX ooooooooooooooooooooooooooooooX ooooooooooooooo",
"@@@@@@@++++OOOoX o@@@@@@@@@@@@@@@@@@@@@++++OOOoX o@@@@@@@@@@@@@@",
"@@@@@@@++++OOOoX o@@@@@@@@@@@@@@@@@@@@@++++OOOoX o@@@@@@@@@@@@@@",
"@@@@@@@++++OOOoX o@@@@@@@@@@@@@@@@@@@@@++++OOOoX o@@@@@@@@@@@@@@",
"@@@@@@@++++O      @@@@@@@@@@@@@@@@@@@@   ++OOOoX o@@@@@@@@@@@@@@",
"@@@@@@@++++O XXX  @@@@   @@@@@@@@@@   @++++OOOoX o@@@@@  @@@@@@@",
"@@@@   ++++OO XXX @@@  X @@@@@@@@@@ @@@++++OOOoX o@@@@  @@@@@@@@",
"@@@  @@++++OO XXXX    XX   @@@@@@@@ @@@++++OOOoX o@@  @@@@@@@@@@",
"+++  ++++++OO    XXXXXXXX  ++++++++ +++++++OOOoX o++  ++++++++++",
"++++ ++++++OOOoX  XXXXXXX +++++++++ +++++++OOOoX o+++ ++++++++++",
"++++ ++++++OOOoX      X  ++++++++++++++++++OOOoX o++  ++++++++++",
"OOO  OOOOOOOOOoX oOOOO  OOOOOOOOOOOOOOOOOOOOOOoX oOOOOOOOOOOOOOO",
"OOOOOOOOOOOOOOoX oOOOOOOOOOOOOOOOOOOOOOOOOOOOOoX oOOOOOOOOOOOOOO",
"oooooooooooooooX ooooooooooooooooooooooooooooooX ooooooooooooooo",
"XXXXXXXXXXXXXXXX XXXXXXXXXXXXXXXXXXXXXXXXXXXXXXX XXXXXXXXXXXXXXX",
"                                                                ",
" ooooooooooooooooooooooooooooooX ooooooooooooooooooooooooooooooX",
" o@@@@@@@@@@@@@@@@@@@@@++++OOOoX o@@@@@@@@@@@@@@@@@@@@@++++OOOoX",
" o@@@@@@@@@@@@@@@@@@@@@++++OOOoX o@@@@@@@@@@@@@@@@@@@@@++++OOOoX",
" o@@@@@@@@@@@@@@   @@@@++++OOOoX o@@@@@@@@@@@@@@@   @@@++++OOOoX",
" o@@@@@@@@@@@@   @@@@@@++++OOOoX o@@@@@@@@@@@@@   .  @@++++OOOoX",
" o@@@@@@@@@@@  @@@@@@@@++++OOOoX o@@@@@@@@@@    ..X.. @++++OOOoX",
" o@@@@@@@@@  @@@@@@@@@@++++OOOoX o@@@@@@@@@  ......XX.  +++OOOoX",
" o@@@@@@@@@ @@@@@@@@@@@++++OOOoX o@@@@@@@@  ..     ....    OOOoX",
" o+++++++++ +++++++++++++++OOOoX o++++++++ .     +       ++OOOoX",
" o+++++++++ +++++++++++++++OOOoX o++++++++   ++++++++++++++OOOoX",
" o++++++++++ ++++++++++++++OOOoX o+++++++++++++++++++++++++OOOoX",
" oOOOOOO     OOOOOOOOOOOOOOOOOoX oOOOOOOOOOOOOOOOOOOOOOOOOOOOOoX",
" oOOOOO  OOOOOOOOOOOOOOOOOOOOOoX oOOOOOOOOOOOOOOOOOOOOOOOOOOOOoX",
" ooooooooooooooooooooooooooooooX ooooooooooooooooooooooooooooooX",
" XXXXXXXXXXXXXXXXXXXXXXXXXXXXXXX XXXXXXXXXXXXXXXXXXXXXXXXXXXXXXX",
"                                                                ",
"oooooooooooooooX ooooooooooooooooooooooooooooooX ooooooooooooooo",
"@@@@@@@++ +O   X o@@@@@@@@@@@@@@@@@@@@@++++OOOoX o@@@@@@@@@@@@@@",
"@@@@@@@+    .. X o@@@  @@@@@@@@@@@@@@@@++++OOOoX o@@@@@@@@@@@@@@",
"@@@@@@@++  .XX.  o@  . @@@@@@@@@@@@@@@@  ++OOOoX o@@@@@@@@  @@@@",
"@@@@@@@+++ ..... o  .. @@@@@@@@@@@@@@@  +++OOOoX o@@@@@   @@@@@@",
"@@@@@@@+++     ..  .X. @@@@@@@@@@@@@@ @++++OOOoX o@@@   @@@@@@@@",
"@@@@@@@++++OOO .X..XX. @@@@@@@@@@@@@  @++++OOOoX o@  @@@@@@@@@@@",
"@@@@@@@++++OOOo ...... @@@@@@@@@@@@@  @++++OOOoX o@  @@@@@@@@@@@",
"+++++++++++OOOo       +++++++++++++++ +++++OOOoX o++ +++++++++++",
"+++++++++++OOOoX o++++++++++++++++++  +++++OOOoX o++ +++++++++++",
"+++++++++++OOOoX o++++++++++++++++++ ++++++OOOoX o++++++++++++++",
"OOOOOOOOOOOOOOoX oOOOOOOOOOOOOOOOOOOOOOOOOOOOOoX oOOOOOOOOOOOOOO",
"OOOOOOOOOOOOOOoX oOOOOOOOOOOOOOOOOOOOOOOOOOOOOoX oOOOOOOOOOOOOOO",
"oooooooooooooooX ooooooooooooooooooooooooooooooX ooooooooooooooo",
"XXXXXXXXXXXXXXXX XXXXXXXXXXXXXXXXXXXXXXXXXXXXXXX XXXXXXXXXXXXXXX"
};
