/* XPM */
static char *result[] = {
/* columns rows colors chars-per-pixel */
"64 64 8 1 ",
"  c #3F3F3F",
". c #4E4E4E",
"X c #585858",
"o c #5D5D5D",
"O c #727272",
"+ c #7E7E7E",
"@ c gray56",
"# c #9A9A9A",
/* pixels */
"oooooooooooooooooooooooooooooooooooooooooooooooooooooooooooooooo",
"oOOOOOOOOOOOOOOOOOOOOOOOOOOOOOOOOOOOOOOOOOOOOOOOOOOOOOOOOOOOOOOo",
"oOoooooOOOOOOOOOOOOOOOOOOOOOOOOOOOOOOOOOOOOOOOOOOOOOOOOOOoooooOo",
"oOooooOOOOOOOOOOOOOOOOOOOOOOOOOOOOOOOOOOOOOOOOOOOOOOOOOOOOooooOo",
"oOoooOOOOOOOOOOOOOOOOoooOOOOOOOOOOOOOOOOOOOOOOOOOOOOOOOOOOOoooOo",
"oOoo++++++++++++++ooo...oo+++++ooooooo++++++++++++++++++++++ooOo",
"oOoO+++++++++++++o....o...o+++o.......o+++++++++++++++++++++OoOo",
"oOOO++++++++++++o..ooo+oo.o+oo..oooooo.o++++++++++++++++++++OOOo",
"oOOO+++@@@@@@@@o..o@@@@@@o.o..oo@@@@@o..o@@@@@@@@@@@@@@@@+++OOOo",
"oOOO+++@@@@@@@@@oo@@@@@@@o...o@@@@@@@@o.o@@@@@@@@@@@@@@@@+++OOOo",
"oOOO+++@@@@@@@@@@@@@@@@@@@ooo@@@@@@@@@@o@@@@@@@@@@@@@@@@@+++OOOo",
"oOOO+++@@@@@@@@@@@@@@@@@@@@@@@@@@@@@@@@@@@@@@@@@@@@@@@@@@+++OOOo",
"oOOO+++@@@@@@@@@@@@@@@@@@@@@@@@@@@@@@@@@@@@@ooooo@@@@@@@@+++OOOo",
"oOOO+++@@@@@@@@@@@@@@@@@@@@@@@@@@@@@@@@@@@ooo    oo@@@@@@+++OOOo",
"oOOO+++@@@@@@@@@@@######################ooo       oo@@@@@+++OOOo",
"oOOO+++@@@@@oooooooo###################oo          o@@@@@+++OOOo",
"oOOO+++@@@@oo       oo################oo           o@@@@@+++OOOo",
"oOOO+++@@@@oo        oo##############oo          ..o@@@@@+++OOOo",
"oOOO+++@@@@@o          oo###########oo     .......oo@@@@@+++OOOo",
"oOOO+++@@@@@o           oo#########o    ..........o@@@@@@+++OOOo",
"oOOO+++@@@@@oo           oo########o  ......XXXXXXo@@@@ooo++OOOo",
"oOOO+++@@@@@@o           .oo#######o......XXXXXXXoo@@@o...o+OOOo",
"oOOO+++@@@@@@oo  ..........o#######o.....XXXXXXXoo@@@@@ooo.oOOOo",
"oOOOoo+@@@@@@@oo...........o#######o...XXXXXXXXoo#@@@@@@@o.oOOOo",
"oOOo..o@@@@@@@@oo.........oo#######ooXXXXXoooooo##@@@@@@@o.oOOOo",
"oOo.oo+@@@@@@@@@o..XXXXXXoo#########ooXooooooo####@@@@@@@o.oOOOo",
"oo.o+++@@@@@@@@@##oooXXXoo############oo##########@@@@@@@o.oOOOo",
"oo.o+++@@@@@@@@@####ooXoo#########################@@@@@@o.o+OOOo",
"o.oO+++@@ooo@@@@######oooo########################@@@@@o.o++OOOo",
"o.oO+++@o  ooo@@##################################@@oo@o.o++OOOo",
"o.oO+++@o    oo@##################################@ooo@o.o++OOOo",
"o.oO+++@o      o##################################oo o@o.oo+OOOo",
"oo.o+++@o      o#################################oo  o@@o..oOOOo",
"oo.o+++@o       o###############################oo   o@@@oo.oOOo",
"oOo.o++@@o       o############################ooo   o@@@@++o.oOo",
"oOo.o++@@o        o###########oooooo##########o     o@@@@++o.oOo",
"oOo.o++@@o         o###o######o     o#####oooo      o@@@@++o.oOo",
"oOo.o++@@o         o#oooo#####o      oo###ooo       o@@@@+o.oOOo",
"oo.o+++@@o          oo  oo###oo       o###o         o@@@@o.oOOOo",
"oo.O+++@@@o              oo##o         o#oo      ...o@@@o.o+OOOo",
"oo.O+++@@@o               oooo         ooo     .....o@@@@o++OOOo",
"oo.o+++@@@@o               oo                ......o@@@@@+++OOOo",
"oOo.o++@@@@o                              .........o@@@@@+++OOOo",
"oOOo.o+@@@@oo                       ...............o@@@@@+++OOOo",
"oOOOo.o@@@@@o                .....................oo@@@@@+++OOOo",
"oOOO+o.o@@@@oo            .............XXXXXXXXXXXo@@@@@@+++OOOo",
"oOOO++o@@@@@@o    ..................XXXXXXXXXXXXXXo@@@@@@+++OOOo",
"oOOO+++@@@@@@o................XXXXXXXXXXXXXXXXXXXXo@@@@@@+++OOOo",
"oOOO+++@@@@@@oo...........XXXXXXXXXXXXXXXXXXXXXXXo@@@@@@@+++OOOo",
"oOOO+++@@@@@@@o........XXXXXXXXXXXXXXXXXXXXoooooo@@@@@@@@+++OOOo",
"oOOO+++@@@@@@@o.....XXXXXXXXXXXXXXXXXXXXooo######@@@@@@@@+++OOOo",
"oOOO+++@@@@@@@@o...XXXXXXXXXXXXXXXooooooo########@@@@@o@@+++OOOo",
"oOOO+++oo@@@@@@@oooooooXXXXXXXXoooo@@@@@@@@@@@@@@@@@@o.o@+++OOOo",
"oOOO++o..o@@@@@@@@@@@@@oooooooooo@@@@@@@@@@@@@@@@@@@o.o@@+++OOOo",
"oOOO+++oo.o@@@@@@@@@@@@@@@@@@@@@@@@@@@@@@@@@@@@@@@@o.o@@@+++OOOo",
"oOOO+++@@o.o@@@@@@@@@@@@@@@@@@@@@@@@@@@@@@@@@@@@@@o.o@@@@+++OOOo",
"oOOO+++@@@o.oo@@@@@@@@@@@@@@@@@@@@@@@@@@@@@@@@@@oo.o@@@@@+++OOOo",
"oOoO+++++++o..o+++++++++++++++++++++++++++++++oo..o+++++++++OoOo",
"oOoo++++++++oo+++++++++++++++++++++++++++++++o..oo++++++++++ooOo",
"oOooo+++++++++++++++++++++++++++++++++++++++++oo+++++++++++oooOo",
"oOoooo++++++++++++++++++++++++++++++++++++++++++++++++++++ooooOo",
"oOoooooOOOOOOOOOOOOOOOOOOOOOOOOOOOOOOOOOOOOOOOOOOOOOOOOOOoooooOo",
"oOOOOOOOOOOOOOOOOOOOOOOOOOOOOOOOOOOOOOOOOOOOOOOOOOOOOOOOOOOOOOOo",
"oooooooooooooooooooooooooooooooooooooooooooooooooooooooooooooooo"
};
