/* XPM */
static char *result[] = {
/* columns rows colors chars-per-pixel */
"64 64 9 1 ",
"  c #515F35",
". c #5E703B",
"X c #5D5D5D",
"o c #5C6943",
"O c #6D7A54",
"+ c #7E7E7E",
"@ c gray52",
"# c #8D8D8D",
"$ c #959595",
/* pixels */
"Xo..OOoXo.OOOoXo.OO.oXXXo.OOoXXXXXXXXo.OOOoXXXXo.OOoXXXXXo.OOoXX",
"X+ooOOo+ooOO.o+oo.O.o+++ooO.o++ X++++oo.OOo++++o.OOo+++++o.OOo+ ",
"X+$oO.o$$oOO.o$$o.Ooo$$##oOoo@+ X+$$$$oo.Oo$$$$o.O.o$$$##o.O.o+ ",
"X+$oOoo$$oooo$$$ooOo$$$##oOo@@+ X+$$$$$ooOo$$$$ooOo$$$$##ooO.o+ ",
"X+$oOo$$$$$$$$$$$ooo$$$##ooo@@+ X+$$$$$$oOo$$$$$oOo$$$$###oOoo+ ",
"X+$$oo$$$$$$$$$$$$$$$$$##oo@@@+ X+$$$$$$$oo$$$$$ooo$$$$###ooo@+ ",
"X+$$oo$$$$$$$$$$$$$$$$$####@@@+ X+$$$$$$$$$$$$$$$oo$$$$####oo@+ ",
"X+$$$$$$$$$$$$$$$$$$$$$####@@@+ X+$$$$$$$$$$$$$$$$$$$$$####@@@+ ",
"X+$$$$$$$$$$$$$$$$$$$$$####@@@+ X+$$$$$$$$$$$$$$$$$$$$$####@@@+ ",
"X+#########################@@@+ X+#########################@@@+ ",
"X+#########################@@@+ X+#########################@@@+ ",
"X+#########################@@@+ X+#########################@@@+ ",
"X+@@@@@@@@@@@@@@@@@@@@@@@@@@@@+ X+@@@@@@@@@@@@@@@@@@@@@@@@@@@@+ ",
"X+@@@@@@@@@@@@@@@@@@@@@@@@@@@@+ X+@@@@@@@@@@@@@@@@@@@@@@@@@@@@+ ",
"X++++++++++++++++++++++++++++++ X++++++++++++++++++++++++++++++ ",
"X                               o                               ",
"oo.OOoXXoOOoXXXXXXXXoo.OOoXXXXXo.O.oXXXoo..OoXXXXXXoo...OoooOOoX",
"+oOOo+++o.Oo+++ X++++o.O.o+++++ooOOo++++o.OOo++ X+++oo.OOo+o.Oo+",
"$ooOo$$#ooOo@@+ X+$$$ooOoo$$$$$$ooOo$$$#o.O.o@+ X+$$$o.Ooo$ooOo$",
"$$ooo$$##o.o@@+ X+$$$$oOo$$$$$$$$ooo$$$##oOoo@+ X+$$$$oOo$$$ooo$",
"$$oo$$$###oo@@+ X+$$$$oOo$$$$$$$$$$$$$$##oOo@@+ X+$$$$ooo$$$oo$$",
"$$$$$$$###oo@@+ X+$$$$$oo$$$$$$$$$$$$$$##ooo@@+ X+$$$$$$$$$$$$$$",
"$$$$$$$####@@@+ X+$$$$$$$$$$$$$$$$$$$$$###o@@@+ X+$$$$$$$$$$$$$$",
"$$$$$$$####@@@+ X+$$$$$$$$$$$$$$$$$$$$$####@@@+ X+$$$$$$$$$$$$$$",
"$$$$$$$####@@@+ X+$$$$$$$$$$$$$$$$$$$$$####@@@+ X+$$$$$$$$$$$$$$",
"###########@@@+ X+#########################@@@+ X+##############",
"###########@@@+ X+#########################@@@+ X+##############",
"###########@@@+ X+#########################@@@+ X+##############",
"@@@@@@@@@@@@@@+ X+@@@@@@@@@@@@@@@@@@@@@@@@@@@@+ X+@@@@@@@@@@@@@@",
"@@@@@@@@@@@@@@+ X+@@@@@@@@@@@@@@@@@@@@@@@@@@@@+ X+@@@@@@@@@@@@@@",
"+++++++++++++++ X++++++++++++++++++++++++++++++ X+++++++++++++++",
"                X                               X               ",
"XXo.OOoXXo.O..oXo..O..oXXoO.oXXXXXXXXXo..O.oXXXoo.OoXXXXo.O.oXXX",
"X+o.OOo++ooOOoo+o..O.oo++oOOo++ X+++++oo.Ooo++++o.Oo++++o.O.o++ ",
"X+o.O.o$$$ooOo$$oo.O.o$##ooOo@+ X+$$$$$o.Oo$$$$$ooOo$$$#o.O.o@+ ",
"X+ooOoo$$$$oOo$$$oOOoo$###oOo@+ X+$$$$$oOOo$$$$$$oOoo$$#oOOoo@+ ",
"X+$oOo$$$$$$oo$$$oooo$$###ooo@+ X+$$$$$oOo$$$$$$$oOOo$$#oO.o@@+ ",
"X+$ooo$$$$$$$o$$$$oo$$$####o@@+ X+$$$$$oOo$$$$$$$$ooo$$#oOoo@@+ ",
"X+$$$$$$$$$$$$$$$$$$$$$####@@@+ X+$$$$$ooo$$$$$$$$$$$$$#oOo@@@+ ",
"X+$$$$$$$$$$$$$$$$$$$$$####@@@+ X+$$$$$$$$$$$$$$$$$$$$$#ooo@@@+ ",
"X+$$$$$$$$$$$$$$$$$$$$$####@@@+ X+$$$$$$$$$$$$$$$$$$$$$#oo#@@@+ ",
"X+#########################@@@+ X+#########################@@@+ ",
"X+#########################@@@+ X+#########################@@@+ ",
"X+#########################@@@+ X+#########################@@@+ ",
"X+@@@@@@@@@@@@@@@@@@@@@@@@@@@@+ X+@@@@@@@@@@@@@@@@@@@@@@@@@@@@+ ",
"X+@@@@@@@@@@@@@@@@@@@@@@@@@@@@+ X+@@@@@@@@@@@@@@@@@@@@@@@@@@@@+ ",
"X++++++++++++++++++++++++++++++ X++++++++++++++++++++++++++++++ ",
"Xo                              X                               ",
"Xo.O..oXXXoO.oXXXXXXo..O.oXXXXoXXXXXXXXXo.O.oXXXXXo..OoXXXo.O.oX",
"+ooOOoo+++oO.o+ X+++o.OOoo++++o..OOoo+++o.O.o++ X+o.OOo+++ooOOo+",
"$$ooOo$###oO.o+ X+$$oOOOo$$$$$ooOOoo$$$#ooOOo@+ X+$oO.o$$$$ooOo$",
"$$$oOo$###oOOo+ X+$$$OOo$$$$$$$oOoo$$$$##ooOo@+ X+$oOo$$$$$$ooo$",
"$$$ooo$####oo@+ X+$$$oo$$$$$$$$ooo$$$$$###ooo@+ X+$oOo$$$$$$$$o$",
"$$$$$$$####@@@+ X+$$$$$$$$$$$$$$$$$$$$$####@@@+ X+$ooo$$$$$$$$$$",
"$$$$$$$####@@@+ X+$$$$$$$$$$$$$$$$$$$$$####@@@+ X+$$o$$$$$$$$$$$",
"$$$$$$$####@@@+ X+$$$$$$$$$$$$$$$$$$$$$####@@@+ X+$$$$$$$$$$$$$$",
"$$$$$$$####@@@+ X+$$$$$$$$$$$$$$$$$$$$$####@@@+ X+$$$$$$$$$$$$$$",
"###########@@@+ X+#########################@@@+ X+##############",
"###########@@@+ X+#########################@@@+ X+##############",
"###########@@@+ X+#########################@@@+ X+##############",
"@@@@@@@@@@@@@@+ X+@@@@@@@@@@@@@@@@@@@@@@@@@@@@+ X+@@@@@@@@@@@@@@",
"@@@@@@@@@@@@@@+ X+@@@@@@@@@@@@@@@@@@@@@@@@@@@@+ X+@@@@@@@@@@@@@@",
"+++++++++++++++ X++++++++++++++++++++++++++++++ X+++++++++++++++",
"                X                               X               "
};
